<svg width="198" height="101" viewBox="0 0 198 101" fill="none" xmlns="http://www.w3.org/2000/svg">
<path d="M78.3017 70.4187C77.447 69.6304 76.4709 68.9849 75.4109 68.5069L72.1348 67.0191L63.979 69.987L83.5513 80.1239C84.0069 80.3602 84.5067 80.4993 85.0189 80.5325C85.531 80.5657 86.0445 80.4922 86.5268 80.3166L87.2977 80.0391C87.4031 80.0008 87.4968 79.9361 87.57 79.8513C87.6433 79.7664 87.6935 79.6642 87.7159 79.5543C87.7383 79.4445 87.7322 79.3308 87.6982 79.224C87.6641 79.1172 87.6032 79.021 87.5213 78.9444L78.3017 70.4187Z" fill="#0091FF"/>
<path opacity="0.3" d="M78.3017 70.4187C77.447 69.6304 76.4709 68.9849 75.4109 68.5069L72.1348 67.0191L63.979 69.987L83.5513 80.1239C84.0069 80.3602 84.5067 80.4993 85.0189 80.5325C85.531 80.5657 86.0445 80.4922 86.5268 80.3166L87.2977 80.0391C87.4031 80.0008 87.4968 79.9361 87.57 79.8513C87.6433 79.7664 87.6935 79.6642 87.7159 79.5543C87.7383 79.4445 87.7322 79.3308 87.6982 79.224C87.6641 79.1172 87.6032 79.021 87.5213 78.9444L78.3017 70.4187Z" fill="white"/>
<path d="M78.6174 53.0895L71.0629 20.8057L63.254 23.6424L61.5581 60.5515L79.2495 54.8163L78.6174 53.0895Z" fill="#0091FF"/>
<path opacity="0.6" d="M78.6174 53.0895L71.0629 20.8057L63.254 23.6424L61.5581 60.5515L79.2495 54.8163L78.6174 53.0895Z" fill="white"/>
<path d="M125.679 66.071L189.106 95.3176C190.04 95.7503 191.081 95.8953 192.097 95.7339L194.047 95.4178C194.309 95.3743 194.555 95.2607 194.757 95.089C194.96 94.9174 195.113 94.6941 195.199 94.4428C195.285 94.1916 195.301 93.9217 195.247 93.6618C195.192 93.4019 195.068 93.1616 194.888 92.9665C194.279 92.3256 193.638 91.7158 192.968 91.1395C189.561 88.1948 152.205 56.4505 152.205 56.4505L125.679 66.071Z" fill="#0091FF"/>
<path opacity="0.3" d="M125.679 66.071L189.106 95.3176C190.04 95.7503 191.081 95.8953 192.097 95.7339L194.047 95.4178C194.309 95.3743 194.555 95.2607 194.757 95.089C194.96 94.9174 195.113 94.6941 195.199 94.4428C195.285 94.1916 195.301 93.9217 195.247 93.6618C195.192 93.4019 195.068 93.1616 194.888 92.9665C194.279 92.3256 193.638 91.7158 192.968 91.1395C189.561 88.1948 152.205 56.4505 152.205 56.4505L125.679 66.071Z" fill="white"/>
<path d="M50.1805 65.886C49.924 66.32 49.7692 66.8066 49.7277 67.3091C49.6861 67.8116 49.759 68.3169 49.9407 68.7872C50.1224 69.2575 50.4084 69.6805 50.777 70.0245C51.1456 70.3685 51.5874 70.6245 52.0692 70.7733C60.6566 73.4096 91.7302 80.6172 136.487 64.3288C187.287 45.828 199.243 36.886 197.902 29.9867C197.776 29.4176 197.563 28.8714 197.27 28.3679C195.473 25.1611 186.724 12.7887 164.423 20.8751L62.1135 58.1234C62.1135 58.1234 52.9479 61.2839 50.1805 65.886Z" fill="#0091FF"/>
<path d="M81.6088 51.0314L164.423 20.8751C186.724 12.7656 195.443 25.138 197.27 28.3448C197.563 28.8483 197.776 29.3944 197.902 29.9636C199.243 36.9014 187.287 45.828 136.487 64.3057C91.7302 80.5941 60.6566 73.3865 52.0692 70.7501C51.5874 70.6014 51.1456 70.3454 50.777 70.0014C50.4084 69.6574 50.1224 69.2344 49.9407 68.7641C49.759 68.2938 49.6861 67.7884 49.7277 67.2859C49.7692 66.7835 49.924 66.2969 50.1805 65.8629C52.9479 61.2377 62.1135 58.1002 62.1135 58.1002L81.6088 51.0314Z" fill="#0091FF"/>
<path opacity="0.1" d="M159.343 39.6534C122.419 53.7602 74.1547 68.7921 55.0449 71.6058C66.5617 74.5505 95.9009 79.0986 136.487 64.3288C187.079 45.9205 199.143 36.9553 197.91 30.0715C193.092 29.4933 182.523 30.7961 159.343 39.6534Z" fill="black"/>
<g opacity="0.7">
<path d="M174.848 25.546L67.2295 63.6979L67.4871 64.4245L175.105 26.2726L174.848 25.546Z" fill="black"/>
</g>
<path d="M102.198 53.9144L120.36 47.3081C121.28 46.9819 122.05 46.3338 122.529 45.4836C123.008 44.6334 123.163 43.6385 122.966 42.6829C122.549 40.7634 121.123 38.4431 117.184 36.5699L25.5665 0.462522C24.9768 0.230774 24.35 0.108013 23.7164 0.100214L16.4934 8.48009e-08C16.3748 -6.5923e-05 16.2594 0.0384043 16.1645 0.109615C16.0697 0.180825 16.0005 0.280924 15.9675 0.39484C15.9344 0.508757 15.9393 0.630323 15.9813 0.74124C16.0233 0.852157 16.1003 0.94642 16.2005 1.00984L102.198 53.9144Z" fill="#0091FF"/>
<path opacity="0.3" d="M102.198 53.9144L120.36 47.3081C121.28 46.9819 122.05 46.3338 122.529 45.4836C123.008 44.6334 123.163 43.6385 122.966 42.6829C122.549 40.7634 121.123 38.4431 117.184 36.5699L25.5665 0.462522C24.9768 0.230774 24.35 0.108013 23.7164 0.100214L16.4934 8.48009e-08C16.3748 -6.5923e-05 16.2594 0.0384043 16.1645 0.109615C16.0697 0.180825 16.0005 0.280924 15.9675 0.39484C15.9344 0.508757 15.9393 0.630323 15.9813 0.74124C16.0233 0.852157 16.1003 0.94642 16.2005 1.00984L102.198 53.9144Z" fill="white"/>
<path d="M60.8415 100.321H58.1743V99.9352H60.8338L60.8415 100.321Z" fill="#0091FF"/>
<path d="M67.7642 100.336V99.9505C70.0768 99.9505 72.3894 99.9505 74.702 99.8966V100.282C72.3817 100.274 70.0691 100.328 67.7642 100.336Z" fill="#0091FF"/>
<path d="M81.6089 100.182V99.7964C94.5286 99.5651 107.155 99.0949 117.793 98.6709V99.0563C107.155 99.5034 94.5363 99.9505 81.6089 100.182Z" fill="#0091FF"/>
<path d="M134.928 97.9564L124.746 98.3742L124.762 98.7593L134.944 98.3415L134.928 97.9564Z" fill="#0091FF"/>
<path d="M141.898 98.0311V97.6456C146.839 97.4144 151.919 97.1677 156.945 96.8748C167.884 96.312 176.279 95.8341 184.157 95.333V95.7185C176.271 96.2195 167.876 96.6975 156.93 97.2602C151.904 97.5531 146.839 97.7998 141.898 98.0311Z" fill="#0091FF"/>
<path d="M1.42624 53.8282L0 59.3992L0.373391 59.4948L1.79964 53.9238L1.42624 53.8282Z" fill="#0091FF"/>
<path d="M7.02519 32.5116L3.37549 46.3057L3.7481 46.4043L7.39781 32.6102L7.02519 32.5116Z" fill="#0091FF"/>
<path d="M9.28614 25.5619L8.92383 25.5003C8.92383 25.3538 12.9323 10.6303 14.8518 3.30702L15.2218 3.40724C13.2946 10.6919 9.32468 25.4155 9.28614 25.5619Z" fill="#0091FF"/>
<g opacity="0.7">
<path d="M75.7272 58.8325C75.1259 59.0484 74.6942 58.6552 74.7559 57.9615L74.8638 56.6972C74.9027 56.3422 75.0333 56.0035 75.2428 55.7142C75.4523 55.425 75.7335 55.1953 76.0586 55.0476C76.6522 54.8317 77.0839 55.2172 77.0222 55.9187L76.9143 57.1752C76.8767 57.5305 76.7475 57.87 76.5394 58.1605C76.3313 58.451 76.0515 58.6825 75.7272 58.8325Z" fill="black"/>
<path d="M79.9436 57.2908C79.35 57.5143 78.9183 57.1212 78.98 56.4274L79.0879 55.1632C79.1268 54.8092 79.2566 54.4713 79.4646 54.1823C79.6726 53.8932 79.9518 53.6629 80.275 53.5135C80.8763 53.29 81.308 53.6831 81.2463 54.3769L81.1384 55.6411C81.0995 55.9961 80.9689 56.3349 80.7594 56.6241C80.5499 56.9133 80.2687 57.1431 79.9436 57.2908Z" fill="black"/>
<path d="M84.1682 55.7568C83.5746 55.9726 83.143 55.5872 83.1969 54.8857L83.3126 53.6292C83.3502 53.2738 83.4794 52.9344 83.6875 52.6439C83.8955 52.3534 84.1754 52.1218 84.4997 51.9718C85.0933 51.756 85.5326 52.1491 85.471 52.8429L85.3554 54.1071C85.3164 54.4611 85.1867 54.799 84.9787 55.088C84.7707 55.3771 84.4915 55.6074 84.1682 55.7568Z" fill="black"/>
<path d="M88.3926 54.2228C87.799 54.4386 87.3596 54.0532 87.4213 53.3517L87.537 52.0875C87.5759 51.7335 87.7056 51.3956 87.9136 51.1066C88.1216 50.8175 88.4008 50.5871 88.7241 50.4378C89.3176 50.222 89.7493 50.6074 89.6877 51.3089L89.5797 52.5654C89.5421 52.9207 89.4129 53.2602 89.2048 53.5507C88.9968 53.8412 88.7169 54.0728 88.3926 54.2228Z" fill="black"/>
<path d="M92.6168 52.6887C92.0155 52.9046 91.5838 52.5114 91.6455 51.8176L91.7534 50.5534C91.7924 50.1984 91.923 49.8597 92.1325 49.5704C92.342 49.2812 92.6231 49.0514 92.9483 48.9038C93.5418 48.6879 93.9735 49.0734 93.9119 49.7671L93.8039 51.0314C93.7641 51.386 93.6341 51.7245 93.4263 52.0147C93.2184 52.3048 92.9398 52.5369 92.6168 52.6887Z" fill="black"/>
<path d="M124.824 40.9638C124.23 41.1797 123.799 40.7942 123.86 40.0928L123.968 38.8362C124.006 38.4809 124.135 38.1414 124.343 37.8509C124.551 37.5604 124.831 37.3289 125.155 37.1789C125.757 36.963 126.188 37.3562 126.127 38.05L126.019 39.3142C125.98 39.6692 125.849 40.0079 125.64 40.2972C125.43 40.5864 125.149 40.8162 124.824 40.9638Z" fill="black"/>
<path d="M129.048 39.4298C128.454 39.6457 128.023 39.2525 128.084 38.5587L128.192 37.2945C128.231 36.9406 128.361 36.6027 128.569 36.3136C128.777 36.0246 129.056 35.7942 129.38 35.6449C129.973 35.429 130.412 35.8145 130.351 36.5159L130.235 37.7725C130.199 38.1282 130.07 38.4684 129.862 38.7591C129.654 39.0499 129.373 39.2811 129.048 39.4298Z" fill="black"/>
<path d="M133.272 37.8958C132.678 38.1116 132.239 37.7185 132.301 37.0247L132.416 35.7605C132.455 35.4065 132.585 35.0686 132.793 34.7796C133.001 34.4905 133.28 34.2602 133.603 34.1108C134.197 33.8873 134.629 34.2804 134.575 34.9742L134.459 36.2384C134.419 36.5931 134.289 36.9316 134.081 37.2218C133.874 37.5119 133.595 37.7439 133.272 37.8958Z" fill="black"/>
<path d="M137.497 36.3541C136.895 36.5699 136.464 36.1845 136.525 35.483L136.633 34.2265C136.671 33.8701 136.801 33.5297 137.011 33.2391C137.22 32.9484 137.502 32.7174 137.828 32.5691C138.422 32.3533 138.853 32.7464 138.792 33.4402L138.684 34.7044C138.645 35.0584 138.515 35.3963 138.307 35.6853C138.099 35.9744 137.82 36.2047 137.497 36.3541Z" fill="black"/>
<path d="M141.713 34.82C141.12 35.0359 140.688 34.6504 140.75 33.9489L140.857 32.6924C140.895 32.3371 141.024 31.9976 141.232 31.7071C141.44 31.4166 141.72 31.1851 142.045 31.0351C142.646 30.8192 143.078 31.2047 143.016 31.9061L142.908 33.1627C142.87 33.519 142.74 33.8594 142.531 34.1501C142.321 34.4408 142.039 34.6717 141.713 34.82Z" fill="black"/>
<path d="M146.238 33.2089C145.645 33.4248 145.205 33.0316 145.267 32.3379L145.383 31.0736C145.42 30.7192 145.549 30.3807 145.757 30.0914C145.966 29.8021 146.246 29.5721 146.57 29.424C147.163 29.2081 147.595 29.5936 147.533 30.2873L147.425 31.5516C147.386 31.9062 147.256 32.2448 147.048 32.5349C146.84 32.825 146.561 33.0571 146.238 33.2089Z" fill="black"/>
<path d="M150.463 31.6672C149.862 31.883 149.43 31.4976 149.492 30.8038L149.6 29.5396C149.631 29.1814 149.754 28.8375 149.958 28.5415C150.162 28.2456 150.44 28.0077 150.764 27.8514C151.357 27.6356 151.789 28.0287 151.727 28.7225L151.619 29.9867C151.588 30.3429 151.466 30.685 151.263 30.9796C151.06 31.2742 150.785 31.5111 150.463 31.6672Z" fill="black"/>
<path d="M154.679 30.1254C154.086 30.3413 153.654 29.9559 153.716 29.2544L153.824 27.9978C153.861 27.6425 153.991 27.303 154.199 27.0125C154.407 26.7221 154.687 26.4905 155.011 26.3405C155.612 26.1246 156.044 26.5101 155.982 27.2116L155.874 28.4681C155.837 28.8244 155.707 29.1648 155.497 29.4555C155.287 29.7462 155.006 29.9771 154.679 30.1254Z" fill="black"/>
<path d="M158.904 28.5837C158.31 28.7996 157.878 28.4064 157.932 27.7127L158.048 26.4484C158.085 26.0909 158.215 25.7493 158.424 25.4573C158.634 25.1653 158.916 24.933 159.243 24.7834C159.836 24.5675 160.276 24.9529 160.214 25.6544L160.098 26.9109C160.063 27.2698 159.933 27.613 159.724 27.9065C159.514 28.2 159.231 28.4335 158.904 28.5837Z" fill="black"/>
<path d="M163.097 27.042C162.503 27.2655 162.064 26.8724 162.125 26.1786L162.241 24.9144C162.279 24.5593 162.409 24.2201 162.617 23.9298C162.825 23.6394 163.104 23.4077 163.428 23.257C164.022 23.0412 164.453 23.4343 164.392 24.1281L164.284 25.3923C164.245 25.7463 164.115 26.0842 163.907 26.3732C163.699 26.6623 163.42 26.8926 163.097 27.042Z" fill="black"/>
</g>
<path opacity="0.7" d="M180.233 20.1427C178.803 20.5691 177.474 21.2796 176.325 22.2318C176.325 22.2318 178.021 22.1932 180.442 22.2857L180.233 20.1427Z" fill="black"/>
<g opacity="0.7">
<path d="M185.946 22.6866C188.271 22.9097 190.565 23.38 192.791 24.0896C190.84 22.2581 188.488 20.9091 185.922 20.1505L185.946 22.6866Z" fill="black"/>
<path d="M184.527 19.8575C183.518 19.7072 182.492 19.7072 181.482 19.8575L181.721 22.332C182.616 22.3783 183.571 22.4477 184.55 22.5324L184.527 19.8575Z" fill="black"/>
</g>
<path d="M101.428 26.5949C95.8564 29.0973 90.4218 31.8943 85.1474 34.9742C84.4029 37.008 84.4007 39.2393 85.1411 41.2745C85.8816 43.3097 87.3171 45.018 89.1944 46.0978C95.2156 45.0663 101.178 43.7154 107.055 42.0508C110.254 40.8868 111.596 36.4774 110.039 32.2145C108.481 27.9516 104.635 25.4309 101.428 26.5949Z" fill="#0091FF"/>
<path opacity="0.1" d="M101.428 26.5949C95.8564 29.0973 90.4218 31.8943 85.1474 34.9742C84.4029 37.008 84.4007 39.2393 85.1411 41.2745C85.8816 43.3097 87.3171 45.018 89.1944 46.0978C95.2156 45.0663 101.178 43.7154 107.055 42.0508C110.254 40.8868 111.596 36.4774 110.039 32.2145C108.481 27.9516 104.635 25.4309 101.428 26.5949Z" fill="black"/>
<path opacity="0.7" d="M108.866 32.6385C110.108 36.0457 109.036 39.5763 106.484 40.4859C103.933 41.3956 100.857 39.4067 99.616 36.0072C98.3749 32.6077 99.4464 29.0694 101.998 28.1598C104.55 27.2501 107.595 29.239 108.866 32.6385Z" fill="black"/>
<path d="M160.684 61.3687C155.638 63.6338 150.715 66.1658 145.937 68.954C145.263 70.7957 145.261 72.8162 145.931 74.6594C146.601 76.5026 147.9 78.0501 149.599 79.0292C155.056 78.0964 160.46 76.8742 165.787 75.3676C168.686 74.3115 169.896 70.3261 168.493 66.4564C167.09 62.5867 163.583 60.3126 160.684 61.3687Z" fill="#0091FF"/>
<path opacity="0.1" d="M160.684 61.3687C155.638 63.6338 150.715 66.1658 145.937 68.954C145.263 70.7957 145.261 72.8162 145.931 74.6594C146.601 76.5026 147.9 78.0501 149.599 79.0292C155.056 78.0964 160.46 76.8742 165.787 75.3676C168.686 74.3115 169.896 70.3261 168.493 66.4564C167.09 62.5867 163.583 60.3126 160.684 61.3687Z" fill="black"/>
<path opacity="0.7" d="M167.421 66.8418C168.539 69.9253 167.576 73.109 165.263 73.9492C162.95 74.7894 160.16 72.9779 159.042 69.8944C157.924 66.811 158.888 63.6273 161.201 62.787C163.513 61.9468 166.296 63.7583 167.421 66.8418Z" fill="black"/>
<path d="M61.4273 62.2012L31.4869 48.7265C30.8945 48.4621 30.2546 48.3205 29.606 48.3102L25.5975 48.2639C25.4015 48.2593 25.2098 48.3216 25.0539 48.4404C24.898 48.5592 24.7872 48.7275 24.7396 48.9177C24.6921 49.1078 24.7107 49.3085 24.7923 49.4867C24.874 49.6649 25.0138 49.81 25.1889 49.8982L54.0964 64.8684L61.4273 62.2012Z" fill="#0091FF"/>
<path opacity="0.4" d="M61.4273 62.2012L31.4869 48.7265C30.8945 48.4621 30.2546 48.3205 29.606 48.3102L25.5975 48.2639C25.4015 48.2593 25.2098 48.3216 25.0539 48.4404C24.898 48.5592 24.7872 48.7275 24.7396 48.9177C24.6921 49.1078 24.7107 49.3085 24.7923 49.4867C24.874 49.6649 25.0138 49.81 25.1889 49.8982L54.0964 64.8684L61.4273 62.2012Z" fill="white"/>
</svg>
