<svg xmlns="http://www.w3.org/2000/svg" viewBox="0 0 500 500"><g id="freepik--background-complete--inject-106"><rect y="382.4" width="500" height="0.25" style="fill:#ebebeb"></rect><rect x="416.78" y="398.49" width="33.12" height="0.25" style="fill:#ebebeb"></rect><rect x="322.53" y="401.21" width="8.69" height="0.25" style="fill:#ebebeb"></rect><rect x="396.59" y="389.21" width="19.19" height="0.25" style="fill:#ebebeb"></rect><rect x="52.46" y="390.89" width="43.19" height="0.25" style="fill:#ebebeb"></rect><rect x="104.56" y="390.89" width="6.33" height="0.25" style="fill:#ebebeb"></rect><rect x="131.47" y="395.11" width="93.68" height="0.25" style="fill:#ebebeb"></rect><path d="M237,337.8H43.91a5.71,5.71,0,0,1-5.7-5.71V60.66A5.71,5.71,0,0,1,43.91,55H237a5.71,5.71,0,0,1,5.71,5.71V332.09A5.71,5.71,0,0,1,237,337.8ZM43.91,55.2a5.46,5.46,0,0,0-5.45,5.46V332.09a5.46,5.46,0,0,0,5.45,5.46H237a5.47,5.47,0,0,0,5.46-5.46V60.66A5.47,5.47,0,0,0,237,55.2Z" style="fill:#ebebeb"></path><path d="M453.31,337.8H260.21a5.72,5.72,0,0,1-5.71-5.71V60.66A5.72,5.72,0,0,1,260.21,55h193.1A5.71,5.71,0,0,1,459,60.66V332.09A5.71,5.71,0,0,1,453.31,337.8ZM260.21,55.2a5.47,5.47,0,0,0-5.46,5.46V332.09a5.47,5.47,0,0,0,5.46,5.46h193.1a5.47,5.47,0,0,0,5.46-5.46V60.66a5.47,5.47,0,0,0-5.46-5.46Z" style="fill:#ebebeb"></path><polygon points="440.39 381.98 440.39 334.19 436.3 334.19 436.3 311.41 430.33 311.41 430.33 232.23 421.69 232.23 421.69 222.01 403.25 213.41 403.25 203.11 400.7 203.11 400.7 232.23 397.12 232.23 397.12 311.41 393.55 311.41 393.55 269.78 383.84 269.78 383.84 248.32 381.13 248.32 381.13 311.41 373.76 311.41 373.76 287.4 368.91 287.4 368.91 281.27 357.67 281.27 357.67 260.33 351.51 260.33 351.51 245.51 343.95 245.51 343.95 223.93 341.25 223.93 341.25 245.51 333.68 245.51 333.68 260.33 327.53 260.33 327.53 281.27 316.29 281.27 316.29 287.4 311.44 287.4 311.44 311.41 305.68 311.41 305.68 281.27 294.44 281.27 294.44 216.4 290.87 216.4 290.87 209.24 266.86 209.24 266.86 216.4 261.75 216.4 261.75 263.39 241.31 263.39 241.31 267.99 233.65 267.99 233.65 271.57 241.31 271.57 241.31 289.96 219.86 289.96 219.86 228.66 215.26 228.66 215.26 215.63 205.3 215.63 205.3 169.4 202.49 169.4 202.49 215.63 195.34 215.63 195.34 228.66 153.41 228.66 153.41 224.37 150.85 224.37 150.85 253.49 147.28 253.49 147.28 254 145.13 254 145.13 283.12 141.55 283.12 141.55 291.03 134 291.03 134 269.58 131.29 269.58 131.29 320.66 128.27 320.66 128.27 299.21 125.56 299.21 125.56 332.67 123.92 332.67 123.92 308.66 119.06 308.66 119.06 302.53 107.82 302.53 107.82 281.58 101.67 281.58 101.67 266.77 94.1 266.77 94.1 245.19 91.4 245.19 91.4 266.77 83.84 266.77 83.84 281.58 77.68 281.58 77.68 302.53 66.44 302.53 66.44 308.66 61.59 308.66 61.59 332.16 60.72 332.16 60.72 332.67 58.32 332.67 58.32 381.98 440.39 381.98" style="fill:#f0f0f0"></polygon><rect x="176.8" y="231.52" width="2.89" height="2.89" style="fill:#fafafa"></rect><rect x="176.8" y="236.37" width="2.89" height="2.89" style="fill:#fafafa"></rect><rect x="176.8" y="255.79" width="2.89" height="2.89" style="fill:#fafafa"></rect><rect x="176.8" y="260.64" width="2.89" height="2.89" style="fill:#fafafa"></rect><rect x="176.8" y="265.49" width="2.89" height="2.9" style="fill:#fafafa"></rect><rect x="176.8" y="280.05" width="2.89" height="2.89" style="fill:#fafafa"></rect><rect x="176.8" y="284.9" width="2.89" height="2.9" style="fill:#fafafa"></rect><rect x="181.4" y="250.93" width="2.89" height="2.89" style="fill:#fafafa"></rect><rect x="181.4" y="255.79" width="2.89" height="2.89" style="fill:#fafafa"></rect><rect x="181.4" y="260.64" width="2.89" height="2.89" style="fill:#fafafa"></rect><rect x="181.4" y="265.49" width="2.89" height="2.9" style="fill:#fafafa"></rect><rect x="181.4" y="270.35" width="2.89" height="2.9" style="fill:#fafafa"></rect><rect x="181.4" y="280.05" width="2.89" height="2.89" style="fill:#fafafa"></rect><rect x="181.4" y="284.9" width="2.89" height="2.9" style="fill:#fafafa"></rect><rect x="186" y="231.52" width="2.89" height="2.89" style="fill:#fafafa"></rect><rect x="186" y="236.37" width="2.89" height="2.89" style="fill:#fafafa"></rect><rect x="186" y="241.23" width="2.89" height="2.9" style="fill:#fafafa"></rect><rect x="186" y="246.08" width="2.89" height="2.9" style="fill:#fafafa"></rect><rect x="186" y="250.93" width="2.89" height="2.89" style="fill:#fafafa"></rect><rect x="186" y="255.79" width="2.89" height="2.89" style="fill:#fafafa"></rect><rect x="186" y="260.64" width="2.89" height="2.89" style="fill:#fafafa"></rect><rect x="186" y="265.49" width="2.89" height="2.9" style="fill:#fafafa"></rect><rect x="186" y="270.35" width="2.89" height="2.9" style="fill:#fafafa"></rect><rect x="186" y="275.2" width="2.89" height="2.9" style="fill:#fafafa"></rect><rect x="186" y="284.9" width="2.89" height="2.9" style="fill:#fafafa"></rect><rect x="190.6" y="231.52" width="2.9" height="2.89" style="fill:#fafafa"></rect><rect x="190.6" y="236.37" width="2.9" height="2.89" style="fill:#fafafa"></rect><rect x="190.6" y="241.23" width="2.89" height="2.9" style="fill:#fafafa"></rect><rect x="190.6" y="246.08" width="2.89" height="2.9" style="fill:#fafafa"></rect><rect x="190.6" y="250.93" width="2.89" height="2.89" style="fill:#fafafa"></rect><rect x="190.6" y="255.79" width="2.89" height="2.89" style="fill:#fafafa"></rect><rect x="190.6" y="260.64" width="2.89" height="2.89" style="fill:#fafafa"></rect><rect x="190.6" y="304.32" width="2.89" height="2.89" style="fill:#fafafa"></rect><rect x="195.19" y="231.52" width="2.89" height="2.89" style="fill:#fafafa"></rect><rect x="195.19" y="236.37" width="2.89" height="2.89" style="fill:#fafafa"></rect><rect x="195.19" y="241.23" width="2.89" height="2.9" style="fill:#fafafa"></rect><rect x="195.19" y="246.08" width="2.89" height="2.9" style="fill:#fafafa"></rect><rect x="195.19" y="250.93" width="2.89" height="2.89" style="fill:#fafafa"></rect><rect x="195.19" y="255.79" width="2.89" height="2.89" style="fill:#fafafa"></rect><rect x="195.19" y="260.64" width="2.89" height="2.89" style="fill:#fafafa"></rect><rect x="195.19" y="265.49" width="2.89" height="2.9" style="fill:#fafafa"></rect><rect x="195.19" y="294.61" width="2.89" height="2.89" style="fill:#fafafa"></rect><rect x="195.19" y="299.46" width="2.89" height="2.89" style="fill:#fafafa"></rect><rect x="195.19" y="304.32" width="2.89" height="2.89" style="fill:#fafafa"></rect><rect x="195.19" y="309.17" width="2.89" height="2.9" style="fill:#fafafa"></rect><rect x="195.19" y="328.58" width="2.89" height="2.89" style="fill:#fafafa"></rect><rect x="199.79" y="231.52" width="2.89" height="2.89" style="fill:#fafafa"></rect><rect x="199.79" y="236.37" width="2.89" height="2.89" style="fill:#fafafa"></rect><rect x="199.79" y="241.23" width="2.89" height="2.9" style="fill:#fafafa"></rect><rect x="199.79" y="246.08" width="2.89" height="2.9" style="fill:#fafafa"></rect><rect x="199.79" y="250.93" width="2.89" height="2.89" style="fill:#fafafa"></rect><rect x="199.79" y="255.79" width="2.89" height="2.89" style="fill:#fafafa"></rect><rect x="199.79" y="260.64" width="2.89" height="2.89" style="fill:#fafafa"></rect><rect x="199.79" y="265.49" width="2.89" height="2.9" style="fill:#fafafa"></rect><rect x="199.79" y="270.35" width="2.89" height="2.9" style="fill:#fafafa"></rect><rect x="199.79" y="275.2" width="2.89" height="2.9" style="fill:#fafafa"></rect><rect x="199.79" y="289.76" width="2.89" height="2.89" style="fill:#fafafa"></rect><rect x="199.79" y="294.61" width="2.89" height="2.89" style="fill:#fafafa"></rect><rect x="199.79" y="299.46" width="2.89" height="2.89" style="fill:#fafafa"></rect><rect x="199.79" y="304.32" width="2.89" height="2.89" style="fill:#fafafa"></rect><rect x="199.79" y="309.17" width="2.89" height="2.9" style="fill:#fafafa"></rect><rect x="199.79" y="328.58" width="2.89" height="2.89" style="fill:#fafafa"></rect><rect x="204.39" y="231.52" width="2.89" height="2.89" style="fill:#fafafa"></rect><rect x="204.39" y="236.37" width="2.89" height="2.89" style="fill:#fafafa"></rect><rect x="204.39" y="241.23" width="2.89" height="2.9" style="fill:#fafafa"></rect><rect x="204.39" y="246.08" width="2.89" height="2.9" style="fill:#fafafa"></rect><rect x="204.39" y="250.93" width="2.89" height="2.89" style="fill:#fafafa"></rect><rect x="204.39" y="255.79" width="2.89" height="2.89" style="fill:#fafafa"></rect><rect x="204.39" y="260.64" width="2.89" height="2.89" style="fill:#fafafa"></rect><rect x="204.39" y="265.49" width="2.89" height="2.9" style="fill:#fafafa"></rect><rect x="204.39" y="270.35" width="2.89" height="2.9" style="fill:#fafafa"></rect><rect x="204.39" y="275.2" width="2.89" height="2.9" style="fill:#fafafa"></rect><rect x="204.39" y="280.05" width="2.89" height="2.89" style="fill:#fafafa"></rect><rect x="204.39" y="284.9" width="2.89" height="2.9" style="fill:#fafafa"></rect><rect x="204.39" y="289.76" width="2.89" height="2.89" style="fill:#fafafa"></rect><rect x="204.39" y="294.61" width="2.89" height="2.89" style="fill:#fafafa"></rect><rect x="204.39" y="299.46" width="2.89" height="2.89" style="fill:#fafafa"></rect><rect x="204.39" y="304.32" width="2.89" height="2.89" style="fill:#fafafa"></rect><rect x="204.39" y="309.17" width="2.89" height="2.9" style="fill:#fafafa"></rect><rect x="204.39" y="314.02" width="2.89" height="2.9" style="fill:#fafafa"></rect><rect x="208.99" y="231.52" width="2.89" height="2.89" style="fill:#fafafa"></rect><rect x="208.99" y="236.37" width="2.89" height="2.89" style="fill:#fafafa"></rect><rect x="208.99" y="241.23" width="2.89" height="2.9" style="fill:#fafafa"></rect><rect x="208.99" y="246.08" width="2.89" height="2.9" style="fill:#fafafa"></rect><rect x="208.99" y="250.93" width="2.89" height="2.89" style="fill:#fafafa"></rect><rect x="208.99" y="255.79" width="2.89" height="2.89" style="fill:#fafafa"></rect><rect x="208.99" y="260.64" width="2.89" height="2.89" style="fill:#fafafa"></rect><rect x="208.99" y="265.49" width="2.89" height="2.9" style="fill:#fafafa"></rect><rect x="208.99" y="270.35" width="2.89" height="2.9" style="fill:#fafafa"></rect><rect x="208.99" y="275.2" width="2.89" height="2.9" style="fill:#fafafa"></rect><rect x="208.99" y="289.76" width="2.89" height="2.89" style="fill:#fafafa"></rect><rect x="208.99" y="294.61" width="2.89" height="2.89" style="fill:#fafafa"></rect><rect x="208.99" y="299.46" width="2.89" height="2.89" style="fill:#fafafa"></rect><rect x="208.99" y="304.32" width="2.89" height="2.89" style="fill:#fafafa"></rect><rect x="213.58" y="231.52" width="2.89" height="2.89" style="fill:#fafafa"></rect><rect x="213.58" y="236.37" width="2.89" height="2.89" style="fill:#fafafa"></rect><rect x="213.58" y="241.23" width="2.89" height="2.9" style="fill:#fafafa"></rect><rect x="213.58" y="246.08" width="2.89" height="2.9" style="fill:#fafafa"></rect><rect x="213.58" y="250.93" width="2.89" height="2.89" style="fill:#fafafa"></rect><rect x="213.58" y="255.79" width="2.89" height="2.89" style="fill:#fafafa"></rect><rect x="213.58" y="260.64" width="2.89" height="2.89" style="fill:#fafafa"></rect><rect x="213.58" y="265.49" width="2.89" height="2.9" style="fill:#fafafa"></rect><rect x="213.58" y="270.35" width="2.89" height="2.9" style="fill:#fafafa"></rect><rect x="213.58" y="275.2" width="2.89" height="2.9" style="fill:#fafafa"></rect><rect x="213.58" y="289.76" width="2.89" height="2.89" style="fill:#fafafa"></rect><rect x="213.58" y="294.61" width="2.89" height="2.89" style="fill:#fafafa"></rect><rect x="213.58" y="299.46" width="2.89" height="2.89" style="fill:#fafafa"></rect><rect x="265.35" y="218.92" width="2.89" height="2.89" style="fill:#fafafa"></rect><rect x="265.35" y="223.77" width="2.89" height="2.89" style="fill:#fafafa"></rect><rect x="265.35" y="228.63" width="2.89" height="2.89" style="fill:#fafafa"></rect><rect x="265.35" y="233.48" width="2.89" height="2.89" style="fill:#fafafa"></rect><rect x="265.35" y="238.33" width="2.89" height="2.89" style="fill:#fafafa"></rect><rect x="265.35" y="243.19" width="2.89" height="2.89" style="fill:#fafafa"></rect><rect x="265.35" y="248.04" width="2.89" height="2.89" style="fill:#fafafa"></rect><rect x="265.35" y="252.89" width="2.89" height="2.89" style="fill:#fafafa"></rect><rect x="265.35" y="267.45" width="2.89" height="2.89" style="fill:#fafafa"></rect><rect x="265.35" y="272.3" width="2.89" height="2.89" style="fill:#fafafa"></rect><rect x="269.95" y="218.92" width="2.9" height="2.89" style="fill:#fafafa"></rect><rect x="269.95" y="223.77" width="2.9" height="2.89" style="fill:#fafafa"></rect><rect x="269.95" y="228.63" width="2.9" height="2.89" style="fill:#fafafa"></rect><rect x="269.95" y="233.48" width="2.9" height="2.89" style="fill:#fafafa"></rect><rect x="269.95" y="238.33" width="2.9" height="2.89" style="fill:#fafafa"></rect><rect x="269.95" y="243.19" width="2.9" height="2.89" style="fill:#fafafa"></rect><rect x="269.95" y="248.04" width="2.9" height="2.89" style="fill:#fafafa"></rect><rect x="269.95" y="252.89" width="2.9" height="2.89" style="fill:#fafafa"></rect><rect x="269.95" y="272.3" width="2.9" height="2.89" style="fill:#fafafa"></rect><rect x="274.55" y="218.92" width="2.9" height="2.89" style="fill:#fafafa"></rect><rect x="274.55" y="223.77" width="2.9" height="2.89" style="fill:#fafafa"></rect><rect x="274.55" y="228.63" width="2.9" height="2.89" style="fill:#fafafa"></rect><rect x="274.55" y="233.48" width="2.9" height="2.89" style="fill:#fafafa"></rect><rect x="274.55" y="238.33" width="2.9" height="2.89" style="fill:#fafafa"></rect><rect x="274.55" y="243.19" width="2.9" height="2.89" style="fill:#fafafa"></rect><rect x="274.55" y="248.04" width="2.9" height="2.89" style="fill:#fafafa"></rect><rect x="274.55" y="252.89" width="2.9" height="2.89" style="fill:#fafafa"></rect><rect x="279.14" y="218.92" width="2.9" height="2.89" style="fill:#fafafa"></rect><rect x="279.14" y="223.77" width="2.9" height="2.89" style="fill:#fafafa"></rect><rect x="279.14" y="228.63" width="2.9" height="2.89" style="fill:#fafafa"></rect><rect x="279.14" y="233.48" width="2.9" height="2.89" style="fill:#fafafa"></rect><rect x="279.14" y="238.33" width="2.9" height="2.89" style="fill:#fafafa"></rect><rect x="279.14" y="243.19" width="2.9" height="2.89" style="fill:#fafafa"></rect><rect x="279.14" y="252.89" width="2.9" height="2.89" style="fill:#fafafa"></rect><rect x="279.14" y="257.74" width="2.9" height="2.9" style="fill:#fafafa"></rect><rect x="279.14" y="272.3" width="2.9" height="2.89" style="fill:#fafafa"></rect><rect x="279.14" y="277.16" width="2.9" height="2.89" style="fill:#fafafa"></rect><rect x="279.14" y="282.01" width="2.9" height="2.89" style="fill:#fafafa"></rect><rect x="279.14" y="286.86" width="2.9" height="2.89" style="fill:#fafafa"></rect><rect x="279.14" y="291.72" width="2.9" height="2.89" style="fill:#fafafa"></rect><rect x="279.14" y="296.57" width="2.9" height="2.89" style="fill:#fafafa"></rect><rect x="279.14" y="301.42" width="2.9" height="2.9" style="fill:#fafafa"></rect><rect x="283.74" y="218.92" width="2.89" height="2.89" style="fill:#fafafa"></rect><rect x="283.74" y="223.77" width="2.89" height="2.89" style="fill:#fafafa"></rect><rect x="283.74" y="228.63" width="2.89" height="2.89" style="fill:#fafafa"></rect><rect x="283.74" y="233.48" width="2.89" height="2.89" style="fill:#fafafa"></rect><rect x="283.74" y="238.33" width="2.89" height="2.89" style="fill:#fafafa"></rect><rect x="283.74" y="243.19" width="2.89" height="2.89" style="fill:#fafafa"></rect><rect x="283.74" y="257.74" width="2.89" height="2.9" style="fill:#fafafa"></rect><rect x="283.74" y="262.6" width="2.89" height="2.89" style="fill:#fafafa"></rect><rect x="283.74" y="267.45" width="2.89" height="2.89" style="fill:#fafafa"></rect><rect x="283.74" y="272.3" width="2.89" height="2.89" style="fill:#fafafa"></rect><rect x="283.74" y="277.16" width="2.89" height="2.89" style="fill:#fafafa"></rect><rect x="283.74" y="282.01" width="2.89" height="2.89" style="fill:#fafafa"></rect><rect x="283.74" y="286.86" width="2.89" height="2.89" style="fill:#fafafa"></rect><rect x="283.74" y="291.72" width="2.89" height="2.89" style="fill:#fafafa"></rect><rect x="283.74" y="296.57" width="2.89" height="2.89" style="fill:#fafafa"></rect><rect x="283.74" y="301.42" width="2.89" height="2.9" style="fill:#fafafa"></rect><rect x="283.74" y="306.27" width="2.89" height="2.89" style="fill:#fafafa"></rect><rect x="283.74" y="315.98" width="2.89" height="2.89" style="fill:#fafafa"></rect><rect x="288.34" y="218.92" width="2.9" height="2.89" style="fill:#fafafa"></rect><rect x="288.34" y="223.77" width="2.9" height="2.89" style="fill:#fafafa"></rect><rect x="288.34" y="228.63" width="2.9" height="2.89" style="fill:#fafafa"></rect><rect x="288.34" y="233.48" width="2.9" height="2.89" style="fill:#fafafa"></rect><rect x="288.34" y="238.33" width="2.9" height="2.89" style="fill:#fafafa"></rect><rect x="288.34" y="243.19" width="2.9" height="2.89" style="fill:#fafafa"></rect><rect x="288.34" y="257.74" width="2.9" height="2.9" style="fill:#fafafa"></rect><rect x="288.34" y="262.6" width="2.9" height="2.89" style="fill:#fafafa"></rect><rect x="288.34" y="267.45" width="2.9" height="2.89" style="fill:#fafafa"></rect><rect x="288.34" y="272.3" width="2.9" height="2.89" style="fill:#fafafa"></rect><rect x="288.34" y="286.86" width="2.9" height="2.89" style="fill:#fafafa"></rect><rect x="288.34" y="291.72" width="2.9" height="2.89" style="fill:#fafafa"></rect><rect x="288.34" y="296.57" width="2.9" height="2.89" style="fill:#fafafa"></rect><rect x="288.34" y="301.42" width="2.9" height="2.9" style="fill:#fafafa"></rect><rect x="288.34" y="306.27" width="2.9" height="2.89" style="fill:#fafafa"></rect><rect x="288.34" y="315.98" width="2.9" height="2.89" style="fill:#fafafa"></rect><rect x="288.34" y="320.83" width="2.9" height="2.89" style="fill:#fafafa"></rect><rect x="330.06" y="264.04" width="2.9" height="2.89" style="fill:#fafafa"></rect><rect x="330.06" y="268.9" width="2.9" height="2.89" style="fill:#fafafa"></rect><rect x="330.06" y="273.75" width="2.9" height="2.89" style="fill:#fafafa"></rect><rect x="330.06" y="278.6" width="2.9" height="2.89" style="fill:#fafafa"></rect><rect x="330.06" y="283.46" width="2.9" height="2.89" style="fill:#fafafa"></rect><rect x="330.06" y="288.31" width="2.9" height="2.89" style="fill:#fafafa"></rect><rect x="330.06" y="293.16" width="2.9" height="2.89" style="fill:#fafafa"></rect><rect x="330.06" y="307.72" width="2.9" height="2.89" style="fill:#fafafa"></rect><rect x="330.06" y="312.58" width="2.9" height="2.89" style="fill:#fafafa"></rect><rect x="330.06" y="317.43" width="2.9" height="2.89" style="fill:#fafafa"></rect><rect x="334.66" y="264.04" width="2.89" height="2.89" style="fill:#fafafa"></rect><rect x="334.66" y="268.9" width="2.89" height="2.89" style="fill:#fafafa"></rect><rect x="334.66" y="273.75" width="2.89" height="2.89" style="fill:#fafafa"></rect><rect x="334.66" y="278.6" width="2.89" height="2.89" style="fill:#fafafa"></rect><rect x="334.66" y="283.46" width="2.89" height="2.89" style="fill:#fafafa"></rect><rect x="334.66" y="288.31" width="2.89" height="2.89" style="fill:#fafafa"></rect><rect x="334.66" y="293.16" width="2.89" height="2.89" style="fill:#fafafa"></rect><rect x="339.25" y="264.04" width="2.9" height="2.89" style="fill:#fafafa"></rect><rect x="339.25" y="268.9" width="2.9" height="2.89" style="fill:#fafafa"></rect><rect x="339.25" y="273.75" width="2.9" height="2.89" style="fill:#fafafa"></rect><rect x="339.25" y="278.6" width="2.9" height="2.89" style="fill:#fafafa"></rect><rect x="339.25" y="283.46" width="2.9" height="2.89" style="fill:#fafafa"></rect><rect x="339.25" y="288.31" width="2.9" height="2.89" style="fill:#fafafa"></rect><rect x="339.25" y="293.16" width="2.9" height="2.89" style="fill:#fafafa"></rect><rect x="343.85" y="264.04" width="2.89" height="2.89" style="fill:#fafafa"></rect><rect x="343.85" y="268.9" width="2.89" height="2.89" style="fill:#fafafa"></rect><rect x="343.85" y="273.75" width="2.89" height="2.89" style="fill:#fafafa"></rect><rect x="343.85" y="278.6" width="2.89" height="2.89" style="fill:#fafafa"></rect><rect x="343.85" y="283.46" width="2.89" height="2.89" style="fill:#fafafa"></rect><rect x="343.85" y="288.31" width="2.89" height="2.89" style="fill:#fafafa"></rect><rect x="343.85" y="293.16" width="2.89" height="2.89" style="fill:#fafafa"></rect><rect x="343.85" y="298.02" width="2.89" height="2.89" style="fill:#fafafa"></rect><rect x="343.85" y="302.87" width="2.89" height="2.89" style="fill:#fafafa"></rect><rect x="343.85" y="307.72" width="2.89" height="2.89" style="fill:#fafafa"></rect><rect x="343.85" y="312.58" width="2.89" height="2.89" style="fill:#fafafa"></rect><rect x="348.45" y="264.04" width="2.89" height="2.89" style="fill:#fafafa"></rect><rect x="348.45" y="268.9" width="2.89" height="2.89" style="fill:#fafafa"></rect><rect x="348.45" y="273.75" width="2.89" height="2.89" style="fill:#fafafa"></rect><rect x="348.45" y="278.6" width="2.89" height="2.89" style="fill:#fafafa"></rect><rect x="348.45" y="283.46" width="2.89" height="2.89" style="fill:#fafafa"></rect><rect x="348.45" y="288.31" width="2.89" height="2.89" style="fill:#fafafa"></rect><rect x="348.45" y="293.16" width="2.89" height="2.89" style="fill:#fafafa"></rect><rect x="348.45" y="298.02" width="2.89" height="2.89" style="fill:#fafafa"></rect><rect x="348.45" y="302.87" width="2.89" height="2.89" style="fill:#fafafa"></rect><rect x="348.45" y="307.72" width="2.89" height="2.89" style="fill:#fafafa"></rect><rect x="348.45" y="312.58" width="2.89" height="2.89" style="fill:#fafafa"></rect><rect x="348.45" y="317.43" width="2.89" height="2.89" style="fill:#fafafa"></rect><rect x="348.45" y="331.99" width="2.89" height="2.89" style="fill:#fafafa"></rect><rect x="348.45" y="336.84" width="2.89" height="2.9" style="fill:#fafafa"></rect><rect x="353.05" y="264.04" width="2.89" height="2.89" style="fill:#fafafa"></rect><rect x="353.05" y="268.9" width="2.89" height="2.89" style="fill:#fafafa"></rect><rect x="353.05" y="273.75" width="2.89" height="2.89" style="fill:#fafafa"></rect><rect x="353.05" y="288.31" width="2.89" height="2.89" style="fill:#fafafa"></rect><rect x="353.05" y="293.16" width="2.89" height="2.89" style="fill:#fafafa"></rect><rect x="353.05" y="298.02" width="2.89" height="2.89" style="fill:#fafafa"></rect><rect x="353.05" y="302.87" width="2.89" height="2.89" style="fill:#fafafa"></rect><rect x="353.05" y="307.72" width="2.89" height="2.89" style="fill:#fafafa"></rect><rect x="353.05" y="312.58" width="2.89" height="2.89" style="fill:#fafafa"></rect><rect x="353.05" y="317.43" width="2.89" height="2.89" style="fill:#fafafa"></rect><rect x="353.05" y="331.99" width="2.89" height="2.89" style="fill:#fafafa"></rect><rect x="353.05" y="336.84" width="2.89" height="2.9" style="fill:#fafafa"></rect><rect x="353.05" y="341.69" width="2.89" height="2.9" style="fill:#fafafa"></rect><rect x="401.24" y="234.93" width="2.9" height="2.89" style="fill:#fafafa"></rect><rect x="401.24" y="239.78" width="2.9" height="2.89" style="fill:#fafafa"></rect><rect x="401.24" y="244.63" width="2.9" height="2.89" style="fill:#fafafa"></rect><rect x="401.24" y="249.49" width="2.9" height="2.89" style="fill:#fafafa"></rect><rect x="401.24" y="254.34" width="2.9" height="2.89" style="fill:#fafafa"></rect><rect x="401.24" y="259.19" width="2.9" height="2.89" style="fill:#fafafa"></rect><rect x="401.24" y="264.04" width="2.9" height="2.89" style="fill:#fafafa"></rect><rect x="401.24" y="268.9" width="2.9" height="2.89" style="fill:#fafafa"></rect><rect x="401.24" y="273.75" width="2.9" height="2.89" style="fill:#fafafa"></rect><rect x="401.24" y="278.6" width="2.9" height="2.89" style="fill:#fafafa"></rect><rect x="401.24" y="283.46" width="2.9" height="2.89" style="fill:#fafafa"></rect><rect x="401.24" y="288.31" width="2.9" height="2.89" style="fill:#fafafa"></rect><rect x="401.24" y="293.16" width="2.9" height="2.89" style="fill:#fafafa"></rect><rect x="401.24" y="298.02" width="2.9" height="2.89" style="fill:#fafafa"></rect><rect x="401.24" y="302.87" width="2.9" height="2.89" style="fill:#fafafa"></rect><rect x="401.24" y="307.72" width="2.9" height="2.89" style="fill:#fafafa"></rect><rect x="401.24" y="312.58" width="2.9" height="2.89" style="fill:#fafafa"></rect><rect x="401.24" y="317.43" width="2.9" height="2.89" style="fill:#fafafa"></rect><rect x="401.24" y="322.28" width="2.9" height="2.89" style="fill:#fafafa"></rect><rect x="401.24" y="327.14" width="2.9" height="2.89" style="fill:#fafafa"></rect><rect x="401.24" y="331.99" width="2.9" height="2.89" style="fill:#fafafa"></rect><rect x="401.24" y="336.84" width="2.9" height="2.9" style="fill:#fafafa"></rect><rect x="401.24" y="341.69" width="2.9" height="2.9" style="fill:#fafafa"></rect><rect x="405.83" y="234.93" width="2.9" height="2.89" style="fill:#fafafa"></rect><rect x="405.83" y="239.78" width="2.9" height="2.89" style="fill:#fafafa"></rect><rect x="405.83" y="244.63" width="2.9" height="2.89" style="fill:#fafafa"></rect><rect x="405.83" y="249.49" width="2.9" height="2.89" style="fill:#fafafa"></rect><rect x="405.83" y="254.34" width="2.9" height="2.89" style="fill:#fafafa"></rect><rect x="405.83" y="259.19" width="2.9" height="2.89" style="fill:#fafafa"></rect><rect x="405.83" y="264.04" width="2.9" height="2.89" style="fill:#fafafa"></rect><rect x="405.83" y="268.9" width="2.9" height="2.89" style="fill:#fafafa"></rect><rect x="405.83" y="273.75" width="2.9" height="2.89" style="fill:#fafafa"></rect><rect x="405.83" y="278.6" width="2.9" height="2.89" style="fill:#fafafa"></rect><rect x="405.83" y="283.46" width="2.9" height="2.89" style="fill:#fafafa"></rect><rect x="405.83" y="288.31" width="2.9" height="2.89" style="fill:#fafafa"></rect><rect x="405.83" y="293.16" width="2.9" height="2.89" style="fill:#fafafa"></rect><rect x="405.83" y="298.02" width="2.9" height="2.89" style="fill:#fafafa"></rect><rect x="405.83" y="302.87" width="2.9" height="2.89" style="fill:#fafafa"></rect><rect x="405.83" y="307.72" width="2.9" height="2.89" style="fill:#fafafa"></rect><rect x="405.83" y="312.58" width="2.9" height="2.89" style="fill:#fafafa"></rect><rect x="405.83" y="317.43" width="2.9" height="2.89" style="fill:#fafafa"></rect><rect x="405.83" y="322.28" width="2.9" height="2.89" style="fill:#fafafa"></rect><rect x="410.43" y="234.93" width="2.9" height="2.89" style="fill:#fafafa"></rect><rect x="410.43" y="239.78" width="2.9" height="2.89" style="fill:#fafafa"></rect><rect x="410.43" y="244.63" width="2.89" height="2.89" style="fill:#fafafa"></rect><rect x="410.43" y="249.49" width="2.89" height="2.89" style="fill:#fafafa"></rect><rect x="410.43" y="254.34" width="2.89" height="2.89" style="fill:#fafafa"></rect><rect x="410.43" y="259.19" width="2.89" height="2.89" style="fill:#fafafa"></rect><rect x="410.43" y="264.04" width="2.89" height="2.89" style="fill:#fafafa"></rect><rect x="410.43" y="268.9" width="2.89" height="2.89" style="fill:#fafafa"></rect><rect x="410.43" y="273.75" width="2.89" height="2.89" style="fill:#fafafa"></rect><rect x="410.43" y="278.6" width="2.89" height="2.89" style="fill:#fafafa"></rect><rect x="410.43" y="283.46" width="2.89" height="2.89" style="fill:#fafafa"></rect><rect x="410.43" y="288.31" width="2.89" height="2.89" style="fill:#fafafa"></rect><rect x="410.43" y="293.16" width="2.89" height="2.89" style="fill:#fafafa"></rect><rect x="410.43" y="298.02" width="2.89" height="2.89" style="fill:#fafafa"></rect><rect x="410.43" y="302.87" width="2.89" height="2.89" style="fill:#fafafa"></rect><rect x="410.43" y="307.72" width="2.89" height="2.89" style="fill:#fafafa"></rect><rect x="410.43" y="312.58" width="2.89" height="2.89" style="fill:#fafafa"></rect><rect x="410.43" y="317.43" width="2.89" height="2.89" style="fill:#fafafa"></rect><rect x="410.43" y="322.28" width="2.89" height="2.89" style="fill:#fafafa"></rect><rect x="415.03" y="234.93" width="2.89" height="2.89" style="fill:#fafafa"></rect><rect x="415.03" y="239.78" width="2.89" height="2.89" style="fill:#fafafa"></rect><rect x="415.03" y="244.63" width="2.9" height="2.89" style="fill:#fafafa"></rect><rect x="415.03" y="249.49" width="2.9" height="2.89" style="fill:#fafafa"></rect><rect x="415.03" y="254.34" width="2.9" height="2.89" style="fill:#fafafa"></rect><rect x="415.03" y="259.19" width="2.9" height="2.89" style="fill:#fafafa"></rect><rect x="415.03" y="264.04" width="2.9" height="2.89" style="fill:#fafafa"></rect><rect x="415.03" y="268.9" width="2.9" height="2.89" style="fill:#fafafa"></rect><rect x="415.03" y="273.75" width="2.9" height="2.89" style="fill:#fafafa"></rect><rect x="415.03" y="278.6" width="2.9" height="2.89" style="fill:#fafafa"></rect><rect x="415.03" y="283.46" width="2.9" height="2.89" style="fill:#fafafa"></rect><rect x="415.03" y="288.31" width="2.9" height="2.89" style="fill:#fafafa"></rect><rect x="415.03" y="293.16" width="2.9" height="2.89" style="fill:#fafafa"></rect><rect x="415.03" y="298.02" width="2.9" height="2.89" style="fill:#fafafa"></rect><rect x="415.03" y="302.87" width="2.9" height="2.89" style="fill:#fafafa"></rect><rect x="419.63" y="234.93" width="2.89" height="2.89" style="fill:#fafafa"></rect><rect x="419.63" y="239.78" width="2.89" height="2.89" style="fill:#fafafa"></rect><rect x="419.63" y="244.63" width="2.89" height="2.89" style="fill:#fafafa"></rect><rect x="419.63" y="249.49" width="2.89" height="2.89" style="fill:#fafafa"></rect><rect x="419.63" y="254.34" width="2.89" height="2.89" style="fill:#fafafa"></rect><rect x="419.63" y="259.19" width="2.89" height="2.89" style="fill:#fafafa"></rect><rect x="419.63" y="264.04" width="2.89" height="2.89" style="fill:#fafafa"></rect><rect x="419.63" y="268.9" width="2.89" height="2.89" style="fill:#fafafa"></rect><rect x="419.63" y="273.75" width="2.89" height="2.89" style="fill:#fafafa"></rect><rect x="419.63" y="278.6" width="2.89" height="2.89" style="fill:#fafafa"></rect><rect x="419.63" y="283.46" width="2.89" height="2.89" style="fill:#fafafa"></rect><rect x="419.63" y="288.31" width="2.89" height="2.89" style="fill:#fafafa"></rect><rect x="419.63" y="293.16" width="2.89" height="2.89" style="fill:#fafafa"></rect><rect x="424.22" y="234.93" width="2.89" height="2.89" style="fill:#fafafa"></rect><rect x="424.22" y="239.78" width="2.89" height="2.89" style="fill:#fafafa"></rect><rect x="424.22" y="244.63" width="2.89" height="2.89" style="fill:#fafafa"></rect><rect x="424.22" y="249.49" width="2.89" height="2.89" style="fill:#fafafa"></rect><rect x="424.22" y="254.34" width="2.89" height="2.89" style="fill:#fafafa"></rect><rect x="424.22" y="259.19" width="2.89" height="2.89" style="fill:#fafafa"></rect><rect x="424.22" y="264.04" width="2.89" height="2.89" style="fill:#fafafa"></rect><rect x="424.22" y="268.9" width="2.89" height="2.89" style="fill:#fafafa"></rect><rect x="424.22" y="273.75" width="2.89" height="2.89" style="fill:#fafafa"></rect><rect x="424.22" y="278.6" width="2.89" height="2.89" style="fill:#fafafa"></rect><rect x="424.22" y="283.46" width="2.89" height="2.89" style="fill:#fafafa"></rect><rect x="424.22" y="288.31" width="2.89" height="2.89" style="fill:#fafafa"></rect><rect x="86.38" y="270.35" width="2.89" height="2.9" style="fill:#fafafa"></rect><rect x="86.38" y="275.2" width="2.89" height="2.9" style="fill:#fafafa"></rect><rect x="86.38" y="280.05" width="2.89" height="2.89" style="fill:#fafafa"></rect><rect x="86.38" y="284.9" width="2.89" height="2.9" style="fill:#fafafa"></rect><rect x="86.38" y="289.76" width="2.89" height="2.89" style="fill:#fafafa"></rect><rect x="86.38" y="294.61" width="2.89" height="2.89" style="fill:#fafafa"></rect><rect x="86.38" y="299.46" width="2.89" height="2.89" style="fill:#fafafa"></rect><rect x="86.38" y="304.32" width="2.89" height="2.89" style="fill:#fafafa"></rect><rect x="86.38" y="309.17" width="2.89" height="2.9" style="fill:#fafafa"></rect><rect x="86.38" y="314.02" width="2.89" height="2.9" style="fill:#fafafa"></rect><rect x="86.38" y="318.88" width="2.89" height="2.9" style="fill:#fafafa"></rect><rect x="86.38" y="323.73" width="2.89" height="2.89" style="fill:#fafafa"></rect><rect x="86.38" y="328.58" width="2.89" height="2.89" style="fill:#fafafa"></rect><rect x="86.38" y="333.44" width="2.89" height="2.89" style="fill:#fafafa"></rect><rect x="86.38" y="338.29" width="2.89" height="2.89" style="fill:#fafafa"></rect><rect x="86.38" y="343.14" width="2.89" height="2.89" style="fill:#fafafa"></rect><rect x="86.38" y="347.99" width="2.89" height="2.89" style="fill:#fafafa"></rect><rect x="86.38" y="352.85" width="2.89" height="2.89" style="fill:#fafafa"></rect><rect x="86.38" y="357.7" width="2.89" height="2.89" style="fill:#fafafa"></rect><rect x="86.38" y="362.55" width="2.89" height="2.89" style="fill:#fafafa"></rect><rect x="90.98" y="270.35" width="2.89" height="2.9" style="fill:#fafafa"></rect><rect x="90.98" y="275.2" width="2.89" height="2.9" style="fill:#fafafa"></rect><rect x="90.98" y="280.05" width="2.89" height="2.89" style="fill:#fafafa"></rect><rect x="90.98" y="284.9" width="2.89" height="2.9" style="fill:#fafafa"></rect><rect x="90.98" y="289.76" width="2.89" height="2.89" style="fill:#fafafa"></rect><rect x="90.98" y="294.61" width="2.89" height="2.89" style="fill:#fafafa"></rect><rect x="90.98" y="299.46" width="2.89" height="2.89" style="fill:#fafafa"></rect><rect x="90.98" y="304.32" width="2.89" height="2.89" style="fill:#fafafa"></rect><rect x="90.98" y="309.17" width="2.89" height="2.9" style="fill:#fafafa"></rect><rect x="90.98" y="314.02" width="2.89" height="2.9" style="fill:#fafafa"></rect><rect x="90.98" y="318.88" width="2.89" height="2.9" style="fill:#fafafa"></rect><rect x="90.98" y="323.73" width="2.89" height="2.89" style="fill:#fafafa"></rect><rect x="90.98" y="328.58" width="2.89" height="2.89" style="fill:#fafafa"></rect><rect x="90.98" y="333.44" width="2.89" height="2.89" style="fill:#fafafa"></rect><rect x="90.98" y="338.29" width="2.89" height="2.89" style="fill:#fafafa"></rect><rect x="90.98" y="343.14" width="2.89" height="2.89" style="fill:#fafafa"></rect><rect x="90.98" y="347.99" width="2.89" height="2.89" style="fill:#fafafa"></rect><rect x="90.98" y="352.85" width="2.89" height="2.89" style="fill:#fafafa"></rect><rect x="95.58" y="270.35" width="2.89" height="2.9" style="fill:#fafafa"></rect><rect x="95.58" y="275.2" width="2.89" height="2.9" style="fill:#fafafa"></rect><rect x="95.58" y="280.05" width="2.89" height="2.89" style="fill:#fafafa"></rect><rect x="95.58" y="284.9" width="2.89" height="2.9" style="fill:#fafafa"></rect><rect x="95.58" y="289.76" width="2.89" height="2.89" style="fill:#fafafa"></rect><rect x="95.58" y="294.61" width="2.89" height="2.89" style="fill:#fafafa"></rect><rect x="95.58" y="299.46" width="2.89" height="2.89" style="fill:#fafafa"></rect><rect x="95.58" y="304.32" width="2.89" height="2.89" style="fill:#fafafa"></rect><rect x="95.58" y="309.17" width="2.89" height="2.9" style="fill:#fafafa"></rect><rect x="95.58" y="314.02" width="2.89" height="2.9" style="fill:#fafafa"></rect><rect x="95.58" y="318.88" width="2.89" height="2.9" style="fill:#fafafa"></rect><rect x="95.58" y="323.73" width="2.89" height="2.89" style="fill:#fafafa"></rect><rect x="95.58" y="328.58" width="2.89" height="2.89" style="fill:#fafafa"></rect><rect x="95.58" y="333.44" width="2.89" height="2.89" style="fill:#fafafa"></rect><rect x="95.58" y="338.29" width="2.89" height="2.89" style="fill:#fafafa"></rect><rect x="95.58" y="343.14" width="2.89" height="2.89" style="fill:#fafafa"></rect><rect x="95.58" y="347.99" width="2.89" height="2.89" style="fill:#fafafa"></rect><rect x="95.58" y="352.85" width="2.89" height="2.89" style="fill:#fafafa"></rect><rect x="69.18" y="305.76" width="2.9" height="2.9" style="fill:#fafafa"></rect><rect x="69.18" y="310.62" width="2.9" height="2.89" style="fill:#fafafa"></rect><rect x="69.18" y="315.47" width="2.9" height="2.89" style="fill:#fafafa"></rect><rect x="69.18" y="320.32" width="2.9" height="2.9" style="fill:#fafafa"></rect><rect x="69.18" y="325.18" width="2.9" height="2.89" style="fill:#fafafa"></rect><rect x="69.18" y="330.03" width="2.9" height="2.89" style="fill:#fafafa"></rect><rect x="69.18" y="334.88" width="2.9" height="2.89" style="fill:#fafafa"></rect><rect x="69.18" y="339.74" width="2.9" height="2.89" style="fill:#fafafa"></rect><rect x="69.18" y="344.59" width="2.9" height="2.89" style="fill:#fafafa"></rect><rect x="69.18" y="349.44" width="2.9" height="2.89" style="fill:#fafafa"></rect><rect x="69.18" y="354.3" width="2.9" height="2.89" style="fill:#fafafa"></rect><rect x="69.18" y="359.15" width="2.9" height="2.89" style="fill:#fafafa"></rect><rect x="69.18" y="364" width="2.9" height="2.89" style="fill:#fafafa"></rect><rect x="73.78" y="305.76" width="2.9" height="2.9" style="fill:#fafafa"></rect><rect x="73.78" y="310.62" width="2.9" height="2.89" style="fill:#fafafa"></rect><rect x="73.78" y="315.47" width="2.9" height="2.89" style="fill:#fafafa"></rect><rect x="73.78" y="320.32" width="2.9" height="2.9" style="fill:#fafafa"></rect><rect x="73.78" y="325.18" width="2.9" height="2.89" style="fill:#fafafa"></rect><rect x="73.78" y="330.03" width="2.9" height="2.89" style="fill:#fafafa"></rect><rect x="73.78" y="334.88" width="2.9" height="2.89" style="fill:#fafafa"></rect><rect x="73.78" y="339.74" width="2.9" height="2.89" style="fill:#fafafa"></rect><rect x="73.78" y="344.59" width="2.9" height="2.89" style="fill:#fafafa"></rect><rect x="73.78" y="349.44" width="2.9" height="2.89" style="fill:#fafafa"></rect><rect x="73.78" y="354.3" width="2.9" height="2.89" style="fill:#fafafa"></rect><rect x="73.78" y="359.15" width="2.9" height="2.89" style="fill:#fafafa"></rect><rect x="73.78" y="364" width="2.9" height="2.89" style="fill:#fafafa"></rect><rect x="78.38" y="305.76" width="2.89" height="2.9" style="fill:#fafafa"></rect><rect x="78.38" y="310.62" width="2.89" height="2.89" style="fill:#fafafa"></rect><rect x="78.38" y="315.47" width="2.89" height="2.89" style="fill:#fafafa"></rect><rect x="78.38" y="320.32" width="2.89" height="2.9" style="fill:#fafafa"></rect><rect x="78.38" y="325.18" width="2.89" height="2.89" style="fill:#fafafa"></rect><rect x="78.38" y="330.03" width="2.89" height="2.89" style="fill:#fafafa"></rect><rect x="78.38" y="334.88" width="2.89" height="2.89" style="fill:#fafafa"></rect><rect x="78.38" y="339.74" width="2.89" height="2.89" style="fill:#fafafa"></rect><rect x="78.38" y="344.59" width="2.89" height="2.89" style="fill:#fafafa"></rect><rect x="78.38" y="349.44" width="2.89" height="2.89" style="fill:#fafafa"></rect><rect x="78.38" y="354.3" width="2.89" height="2.89" style="fill:#fafafa"></rect><rect x="78.38" y="359.15" width="2.89" height="2.89" style="fill:#fafafa"></rect><rect x="78.38" y="364" width="2.89" height="2.89" style="fill:#fafafa"></rect><rect x="78.38" y="368.85" width="2.89" height="2.89" style="fill:#fafafa"></rect><rect x="103.92" y="307.21" width="2.9" height="2.89" style="fill:#fafafa"></rect><rect x="103.92" y="312.06" width="2.9" height="2.89" style="fill:#fafafa"></rect><rect x="103.92" y="316.92" width="2.9" height="2.89" style="fill:#fafafa"></rect><rect x="103.92" y="321.77" width="2.9" height="2.89" style="fill:#fafafa"></rect><rect x="103.92" y="326.62" width="2.9" height="2.89" style="fill:#fafafa"></rect><rect x="103.92" y="331.48" width="2.9" height="2.89" style="fill:#fafafa"></rect><rect x="103.92" y="336.33" width="2.9" height="2.89" style="fill:#fafafa"></rect><rect x="103.92" y="341.18" width="2.9" height="2.9" style="fill:#fafafa"></rect><rect x="103.92" y="346.04" width="2.9" height="2.89" style="fill:#fafafa"></rect><rect x="103.92" y="350.89" width="2.9" height="2.89" style="fill:#fafafa"></rect><rect x="103.92" y="365.45" width="2.9" height="2.89" style="fill:#fafafa"></rect><rect x="108.52" y="307.21" width="2.9" height="2.89" style="fill:#fafafa"></rect><rect x="108.52" y="312.06" width="2.9" height="2.89" style="fill:#fafafa"></rect><rect x="108.52" y="316.92" width="2.9" height="2.89" style="fill:#fafafa"></rect><rect x="108.52" y="321.77" width="2.9" height="2.89" style="fill:#fafafa"></rect><rect x="108.52" y="326.62" width="2.9" height="2.89" style="fill:#fafafa"></rect><rect x="108.52" y="331.48" width="2.9" height="2.89" style="fill:#fafafa"></rect><rect x="108.52" y="336.33" width="2.9" height="2.89" style="fill:#fafafa"></rect><rect x="108.52" y="341.18" width="2.9" height="2.9" style="fill:#fafafa"></rect><rect x="108.52" y="346.04" width="2.9" height="2.89" style="fill:#fafafa"></rect><rect x="108.52" y="360.6" width="2.9" height="2.9" style="fill:#fafafa"></rect><rect x="108.52" y="365.45" width="2.9" height="2.89" style="fill:#fafafa"></rect><rect x="113.12" y="307.21" width="2.89" height="2.89" style="fill:#fafafa"></rect><rect x="113.12" y="312.06" width="2.89" height="2.89" style="fill:#fafafa"></rect><rect x="113.12" y="316.92" width="2.89" height="2.89" style="fill:#fafafa"></rect><rect x="113.12" y="321.77" width="2.89" height="2.89" style="fill:#fafafa"></rect><rect x="113.12" y="326.62" width="2.89" height="2.89" style="fill:#fafafa"></rect><rect x="113.12" y="331.48" width="2.89" height="2.89" style="fill:#fafafa"></rect><rect x="113.12" y="336.33" width="2.89" height="2.89" style="fill:#fafafa"></rect><rect x="113.12" y="341.18" width="2.89" height="2.9" style="fill:#fafafa"></rect><rect x="113.12" y="355.74" width="2.89" height="2.9" style="fill:#fafafa"></rect><rect x="113.12" y="360.6" width="2.89" height="2.9" style="fill:#fafafa"></rect><rect x="113.12" y="365.45" width="2.89" height="2.89" style="fill:#fafafa"></rect><rect x="155.86" y="233.48" width="2.89" height="2.89" style="fill:#fafafa"></rect><rect x="155.86" y="238.33" width="2.89" height="2.89" style="fill:#fafafa"></rect><rect x="155.86" y="243.19" width="2.89" height="2.89" style="fill:#fafafa"></rect><rect x="155.86" y="248.04" width="2.89" height="2.89" style="fill:#fafafa"></rect><rect x="155.86" y="252.89" width="2.89" height="2.89" style="fill:#fafafa"></rect><rect x="155.86" y="257.74" width="2.89" height="2.9" style="fill:#fafafa"></rect><rect x="155.86" y="262.6" width="2.89" height="2.89" style="fill:#fafafa"></rect><rect x="155.86" y="267.45" width="2.89" height="2.89" style="fill:#fafafa"></rect><rect x="155.86" y="272.3" width="2.89" height="2.89" style="fill:#fafafa"></rect><rect x="155.86" y="277.16" width="2.89" height="2.89" style="fill:#fafafa"></rect><rect x="155.86" y="282.01" width="2.89" height="2.89" style="fill:#fafafa"></rect><rect x="155.86" y="286.86" width="2.89" height="2.89" style="fill:#fafafa"></rect><rect x="155.86" y="291.72" width="2.89" height="2.89" style="fill:#fafafa"></rect><rect x="155.86" y="296.57" width="2.89" height="2.89" style="fill:#fafafa"></rect><rect x="155.86" y="301.42" width="2.89" height="2.9" style="fill:#fafafa"></rect><rect x="155.86" y="306.27" width="2.89" height="2.89" style="fill:#fafafa"></rect><rect x="155.86" y="311.13" width="2.89" height="2.89" style="fill:#fafafa"></rect><rect x="155.86" y="320.83" width="2.89" height="2.89" style="fill:#fafafa"></rect><rect x="155.86" y="325.69" width="2.89" height="2.89" style="fill:#fafafa"></rect><rect x="155.86" y="330.54" width="2.89" height="2.89" style="fill:#fafafa"></rect><rect x="155.86" y="335.39" width="2.89" height="2.89" style="fill:#fafafa"></rect><rect x="155.86" y="340.25" width="2.89" height="2.89" style="fill:#fafafa"></rect><rect x="160.46" y="233.48" width="2.89" height="2.89" style="fill:#fafafa"></rect><rect x="160.46" y="238.33" width="2.89" height="2.89" style="fill:#fafafa"></rect><rect x="160.46" y="243.19" width="2.89" height="2.89" style="fill:#fafafa"></rect><rect x="160.46" y="248.04" width="2.89" height="2.89" style="fill:#fafafa"></rect><rect x="160.46" y="252.89" width="2.89" height="2.89" style="fill:#fafafa"></rect><rect x="160.46" y="257.74" width="2.89" height="2.9" style="fill:#fafafa"></rect><rect x="160.46" y="262.6" width="2.89" height="2.89" style="fill:#fafafa"></rect><rect x="160.46" y="267.45" width="2.89" height="2.89" style="fill:#fafafa"></rect><rect x="160.46" y="272.3" width="2.89" height="2.89" style="fill:#fafafa"></rect><rect x="160.46" y="277.16" width="2.89" height="2.89" style="fill:#fafafa"></rect><rect x="160.46" y="282.01" width="2.89" height="2.89" style="fill:#fafafa"></rect><rect x="160.46" y="286.86" width="2.89" height="2.89" style="fill:#fafafa"></rect><rect x="160.46" y="291.72" width="2.89" height="2.89" style="fill:#fafafa"></rect><rect x="160.46" y="296.57" width="2.89" height="2.89" style="fill:#fafafa"></rect><rect x="160.46" y="301.42" width="2.89" height="2.9" style="fill:#fafafa"></rect><rect x="160.46" y="306.27" width="2.89" height="2.89" style="fill:#fafafa"></rect><rect x="160.46" y="335.39" width="2.89" height="2.89" style="fill:#fafafa"></rect><rect x="160.46" y="340.25" width="2.89" height="2.89" style="fill:#fafafa"></rect><rect x="165.05" y="233.48" width="2.89" height="2.89" style="fill:#fafafa"></rect><rect x="165.05" y="238.33" width="2.89" height="2.89" style="fill:#fafafa"></rect><rect x="165.05" y="243.19" width="2.89" height="2.89" style="fill:#fafafa"></rect><rect x="165.05" y="248.04" width="2.89" height="2.89" style="fill:#fafafa"></rect><rect x="165.05" y="252.89" width="2.89" height="2.89" style="fill:#fafafa"></rect><rect x="165.05" y="257.74" width="2.89" height="2.9" style="fill:#fafafa"></rect><rect x="165.05" y="262.6" width="2.89" height="2.89" style="fill:#fafafa"></rect><rect x="165.05" y="267.45" width="2.89" height="2.89" style="fill:#fafafa"></rect><rect x="165.05" y="272.3" width="2.89" height="2.89" style="fill:#fafafa"></rect><rect x="165.05" y="277.16" width="2.89" height="2.89" style="fill:#fafafa"></rect><rect x="165.05" y="282.01" width="2.89" height="2.89" style="fill:#fafafa"></rect><rect x="165.05" y="286.86" width="2.89" height="2.89" style="fill:#fafafa"></rect><rect x="165.05" y="291.72" width="2.89" height="2.89" style="fill:#fafafa"></rect><rect x="165.05" y="296.57" width="2.89" height="2.89" style="fill:#fafafa"></rect><rect x="165.05" y="301.42" width="2.89" height="2.9" style="fill:#fafafa"></rect><rect x="165.05" y="306.27" width="2.89" height="2.89" style="fill:#fafafa"></rect><rect x="165.05" y="315.98" width="2.89" height="2.89" style="fill:#fafafa"></rect><rect x="165.05" y="320.83" width="2.89" height="2.89" style="fill:#fafafa"></rect><rect x="165.05" y="325.69" width="2.89" height="2.89" style="fill:#fafafa"></rect><rect x="165.05" y="330.54" width="2.89" height="2.89" style="fill:#fafafa"></rect><rect x="165.05" y="340.25" width="2.89" height="2.89" style="fill:#fafafa"></rect><rect x="139.17" y="294.61" width="2.9" height="2.89" style="fill:#fafafa"></rect><rect x="139.17" y="299.46" width="2.9" height="2.89" style="fill:#fafafa"></rect><rect x="139.17" y="304.32" width="2.9" height="2.89" style="fill:#fafafa"></rect><rect x="139.17" y="309.17" width="2.9" height="2.9" style="fill:#fafafa"></rect><rect x="139.17" y="314.02" width="2.9" height="2.9" style="fill:#fafafa"></rect><rect x="139.17" y="318.88" width="2.9" height="2.9" style="fill:#fafafa"></rect><rect x="139.17" y="323.73" width="2.9" height="2.89" style="fill:#fafafa"></rect><rect x="139.17" y="333.44" width="2.9" height="2.89" style="fill:#fafafa"></rect><rect x="139.17" y="338.29" width="2.9" height="2.89" style="fill:#fafafa"></rect><rect x="139.17" y="343.14" width="2.9" height="2.89" style="fill:#fafafa"></rect><rect x="139.17" y="347.99" width="2.9" height="2.89" style="fill:#fafafa"></rect><rect x="139.17" y="352.85" width="2.9" height="2.89" style="fill:#fafafa"></rect><rect x="139.17" y="357.7" width="2.9" height="2.89" style="fill:#fafafa"></rect><rect x="139.17" y="362.55" width="2.9" height="2.89" style="fill:#fafafa"></rect><rect x="139.17" y="367.41" width="2.9" height="2.89" style="fill:#fafafa"></rect><rect x="143.77" y="294.61" width="2.89" height="2.89" style="fill:#fafafa"></rect><rect x="143.77" y="299.46" width="2.89" height="2.89" style="fill:#fafafa"></rect><rect x="143.77" y="304.32" width="2.89" height="2.89" style="fill:#fafafa"></rect><rect x="143.77" y="309.17" width="2.89" height="2.9" style="fill:#fafafa"></rect><rect x="143.77" y="314.02" width="2.89" height="2.9" style="fill:#fafafa"></rect><rect x="143.77" y="318.88" width="2.89" height="2.9" style="fill:#fafafa"></rect><rect x="143.77" y="333.44" width="2.89" height="2.89" style="fill:#fafafa"></rect><rect x="143.77" y="338.29" width="2.89" height="2.89" style="fill:#fafafa"></rect><rect x="143.77" y="343.14" width="2.89" height="2.89" style="fill:#fafafa"></rect><rect x="143.77" y="347.99" width="2.89" height="2.89" style="fill:#fafafa"></rect><rect x="143.77" y="352.85" width="2.89" height="2.89" style="fill:#fafafa"></rect><rect x="143.77" y="357.7" width="2.89" height="2.89" style="fill:#fafafa"></rect><rect x="143.77" y="362.55" width="2.89" height="2.89" style="fill:#fafafa"></rect><rect x="143.77" y="367.41" width="2.89" height="2.89" style="fill:#fafafa"></rect><rect x="148.37" y="294.61" width="2.89" height="2.89" style="fill:#fafafa"></rect><rect x="148.37" y="299.46" width="2.89" height="2.89" style="fill:#fafafa"></rect><rect x="148.37" y="304.32" width="2.89" height="2.89" style="fill:#fafafa"></rect><rect x="148.37" y="309.17" width="2.89" height="2.9" style="fill:#fafafa"></rect><rect x="148.37" y="314.02" width="2.89" height="2.9" style="fill:#fafafa"></rect><rect x="148.37" y="318.88" width="2.89" height="2.9" style="fill:#fafafa"></rect><rect x="148.37" y="328.58" width="2.89" height="2.89" style="fill:#fafafa"></rect><rect x="148.37" y="333.44" width="2.89" height="2.89" style="fill:#fafafa"></rect><rect x="148.37" y="338.29" width="2.89" height="2.89" style="fill:#fafafa"></rect><rect x="148.37" y="343.14" width="2.89" height="2.89" style="fill:#fafafa"></rect><rect x="148.37" y="347.99" width="2.89" height="2.89" style="fill:#fafafa"></rect><rect x="148.37" y="352.85" width="2.89" height="2.89" style="fill:#fafafa"></rect><rect x="148.37" y="357.7" width="2.89" height="2.89" style="fill:#fafafa"></rect><rect x="148.37" y="362.55" width="2.89" height="2.89" style="fill:#fafafa"></rect><rect x="148.37" y="367.41" width="2.89" height="2.89" style="fill:#fafafa"></rect><rect x="245.26" y="267.45" width="2.89" height="2.89" style="fill:#fafafa"></rect><rect x="245.26" y="272.3" width="2.89" height="2.89" style="fill:#fafafa"></rect><rect x="245.26" y="277.16" width="2.89" height="2.89" style="fill:#fafafa"></rect><rect x="245.26" y="282.01" width="2.89" height="2.89" style="fill:#fafafa"></rect><rect x="245.26" y="286.86" width="2.89" height="2.89" style="fill:#fafafa"></rect><rect x="245.26" y="291.72" width="2.89" height="2.89" style="fill:#fafafa"></rect><rect x="245.26" y="296.57" width="2.89" height="2.89" style="fill:#fafafa"></rect><rect x="245.26" y="301.42" width="2.89" height="2.9" style="fill:#fafafa"></rect><rect x="245.26" y="306.27" width="2.89" height="2.89" style="fill:#fafafa"></rect><rect x="245.26" y="311.13" width="2.89" height="2.89" style="fill:#fafafa"></rect><rect x="245.26" y="315.98" width="2.89" height="2.89" style="fill:#fafafa"></rect><rect x="245.26" y="320.83" width="2.89" height="2.89" style="fill:#fafafa"></rect><rect x="245.26" y="325.69" width="2.89" height="2.89" style="fill:#fafafa"></rect><rect x="245.26" y="335.39" width="2.89" height="2.89" style="fill:#fafafa"></rect><rect x="245.26" y="340.25" width="2.89" height="2.89" style="fill:#fafafa"></rect><rect x="245.26" y="345.1" width="2.89" height="2.89" style="fill:#fafafa"></rect><rect x="245.26" y="349.95" width="2.89" height="2.89" style="fill:#fafafa"></rect><rect x="245.26" y="359.66" width="2.89" height="2.9" style="fill:#fafafa"></rect><rect x="245.26" y="364.51" width="2.89" height="2.89" style="fill:#fafafa"></rect><rect x="245.26" y="369.37" width="2.89" height="2.89" style="fill:#fafafa"></rect><rect x="249.85" y="267.45" width="2.89" height="2.89" style="fill:#fafafa"></rect><rect x="249.85" y="272.3" width="2.89" height="2.89" style="fill:#fafafa"></rect><rect x="249.85" y="277.16" width="2.89" height="2.89" style="fill:#fafafa"></rect><rect x="249.85" y="282.01" width="2.89" height="2.89" style="fill:#fafafa"></rect><rect x="249.85" y="286.86" width="2.89" height="2.89" style="fill:#fafafa"></rect><rect x="249.85" y="291.72" width="2.89" height="2.89" style="fill:#fafafa"></rect><rect x="249.85" y="296.57" width="2.89" height="2.89" style="fill:#fafafa"></rect><rect x="249.85" y="301.42" width="2.89" height="2.9" style="fill:#fafafa"></rect><rect x="249.85" y="306.27" width="2.89" height="2.89" style="fill:#fafafa"></rect><rect x="249.85" y="311.13" width="2.89" height="2.89" style="fill:#fafafa"></rect><rect x="249.85" y="315.98" width="2.89" height="2.89" style="fill:#fafafa"></rect><rect x="249.85" y="320.83" width="2.89" height="2.89" style="fill:#fafafa"></rect><rect x="249.85" y="325.69" width="2.89" height="2.89" style="fill:#fafafa"></rect><rect x="249.85" y="340.25" width="2.89" height="2.89" style="fill:#fafafa"></rect><rect x="249.85" y="345.1" width="2.89" height="2.89" style="fill:#fafafa"></rect><rect x="249.85" y="354.81" width="2.89" height="2.89" style="fill:#fafafa"></rect><rect x="249.85" y="359.66" width="2.89" height="2.9" style="fill:#fafafa"></rect><rect x="249.85" y="364.51" width="2.89" height="2.89" style="fill:#fafafa"></rect><rect x="249.85" y="369.37" width="2.89" height="2.89" style="fill:#fafafa"></rect><rect x="254.45" y="267.45" width="2.89" height="2.89" style="fill:#fafafa"></rect><rect x="254.45" y="272.3" width="2.89" height="2.89" style="fill:#fafafa"></rect><rect x="254.45" y="277.16" width="2.89" height="2.89" style="fill:#fafafa"></rect><rect x="254.45" y="282.01" width="2.89" height="2.89" style="fill:#fafafa"></rect><rect x="254.45" y="286.86" width="2.89" height="2.89" style="fill:#fafafa"></rect><rect x="254.45" y="291.72" width="2.89" height="2.89" style="fill:#fafafa"></rect><rect x="254.45" y="296.57" width="2.89" height="2.89" style="fill:#fafafa"></rect><rect x="254.45" y="301.42" width="2.89" height="2.9" style="fill:#fafafa"></rect><rect x="254.45" y="306.27" width="2.89" height="2.89" style="fill:#fafafa"></rect><rect x="254.45" y="311.13" width="2.89" height="2.89" style="fill:#fafafa"></rect><rect x="254.45" y="315.98" width="2.89" height="2.89" style="fill:#fafafa"></rect><rect x="254.45" y="320.83" width="2.89" height="2.89" style="fill:#fafafa"></rect><rect x="254.45" y="325.69" width="2.89" height="2.89" style="fill:#fafafa"></rect><rect x="254.45" y="330.54" width="2.89" height="2.89" style="fill:#fafafa"></rect><rect x="254.45" y="340.25" width="2.89" height="2.89" style="fill:#fafafa"></rect><rect x="254.45" y="349.95" width="2.89" height="2.89" style="fill:#fafafa"></rect><rect x="254.45" y="354.81" width="2.89" height="2.89" style="fill:#fafafa"></rect><rect x="254.45" y="359.66" width="2.89" height="2.9" style="fill:#fafafa"></rect><rect x="254.45" y="364.51" width="2.89" height="2.89" style="fill:#fafafa"></rect><rect x="254.45" y="369.37" width="2.89" height="2.89" style="fill:#fafafa"></rect><rect x="226.53" y="295.12" width="2.89" height="2.89" style="fill:#fafafa"></rect><rect x="226.53" y="299.97" width="2.89" height="2.89" style="fill:#fafafa"></rect><rect x="226.53" y="304.83" width="2.89" height="2.89" style="fill:#fafafa"></rect><rect x="226.53" y="309.68" width="2.89" height="2.89" style="fill:#fafafa"></rect><rect x="226.53" y="314.53" width="2.89" height="2.89" style="fill:#fafafa"></rect><rect x="226.53" y="319.39" width="2.89" height="2.89" style="fill:#fafafa"></rect><rect x="226.53" y="333.95" width="2.89" height="2.89" style="fill:#fafafa"></rect><rect x="226.53" y="338.8" width="2.89" height="2.89" style="fill:#fafafa"></rect><rect x="226.53" y="343.65" width="2.89" height="2.89" style="fill:#fafafa"></rect><rect x="226.53" y="348.51" width="2.89" height="2.9" style="fill:#fafafa"></rect><rect x="226.53" y="353.36" width="2.89" height="2.89" style="fill:#fafafa"></rect><rect x="226.53" y="358.21" width="2.89" height="2.89" style="fill:#fafafa"></rect><rect x="226.53" y="363.06" width="2.89" height="2.89" style="fill:#fafafa"></rect><rect x="231.12" y="295.12" width="2.89" height="2.89" style="fill:#fafafa"></rect><rect x="231.12" y="299.97" width="2.89" height="2.89" style="fill:#fafafa"></rect><rect x="231.12" y="304.83" width="2.89" height="2.89" style="fill:#fafafa"></rect><rect x="231.12" y="309.68" width="2.89" height="2.89" style="fill:#fafafa"></rect><rect x="231.12" y="314.53" width="2.89" height="2.89" style="fill:#fafafa"></rect><rect x="231.12" y="319.39" width="2.89" height="2.89" style="fill:#fafafa"></rect><rect x="231.12" y="333.95" width="2.89" height="2.89" style="fill:#fafafa"></rect><rect x="231.12" y="338.8" width="2.89" height="2.89" style="fill:#fafafa"></rect><rect x="231.12" y="343.65" width="2.89" height="2.89" style="fill:#fafafa"></rect><rect x="231.12" y="348.51" width="2.89" height="2.9" style="fill:#fafafa"></rect><rect x="231.12" y="353.36" width="2.89" height="2.89" style="fill:#fafafa"></rect><rect x="231.12" y="358.21" width="2.89" height="2.89" style="fill:#fafafa"></rect><rect x="231.12" y="367.92" width="2.89" height="2.89" style="fill:#fafafa"></rect><rect x="383.87" y="273.75" width="2.9" height="2.89" style="fill:#fafafa"></rect><rect x="383.87" y="278.6" width="2.9" height="2.89" style="fill:#fafafa"></rect><rect x="383.87" y="283.46" width="2.9" height="2.89" style="fill:#fafafa"></rect><rect x="383.87" y="288.31" width="2.9" height="2.89" style="fill:#fafafa"></rect><rect x="383.87" y="293.16" width="2.9" height="2.89" style="fill:#fafafa"></rect><rect x="383.87" y="298.02" width="2.9" height="2.89" style="fill:#fafafa"></rect><rect x="383.87" y="302.87" width="2.9" height="2.89" style="fill:#fafafa"></rect><rect x="383.87" y="307.72" width="2.9" height="2.89" style="fill:#fafafa"></rect><rect x="383.87" y="312.58" width="2.9" height="2.89" style="fill:#fafafa"></rect><rect x="383.87" y="317.43" width="2.9" height="2.89" style="fill:#fafafa"></rect><rect x="383.87" y="322.28" width="2.9" height="2.89" style="fill:#fafafa"></rect><rect x="383.87" y="331.99" width="2.9" height="2.89" style="fill:#fafafa"></rect><rect x="383.87" y="336.84" width="2.9" height="2.9" style="fill:#fafafa"></rect><rect x="383.87" y="341.69" width="2.9" height="2.9" style="fill:#fafafa"></rect><rect x="383.87" y="346.55" width="2.9" height="2.89" style="fill:#fafafa"></rect><rect x="383.87" y="351.4" width="2.9" height="2.89" style="fill:#fafafa"></rect><rect x="383.87" y="356.25" width="2.9" height="2.89" style="fill:#fafafa"></rect><rect x="383.87" y="361.11" width="2.9" height="2.89" style="fill:#fafafa"></rect><rect x="383.87" y="365.96" width="2.9" height="2.89" style="fill:#fafafa"></rect><rect x="388.46" y="273.75" width="2.89" height="2.89" style="fill:#fafafa"></rect><rect x="388.46" y="278.6" width="2.89" height="2.89" style="fill:#fafafa"></rect><rect x="388.46" y="283.46" width="2.89" height="2.89" style="fill:#fafafa"></rect><rect x="388.46" y="288.31" width="2.89" height="2.89" style="fill:#fafafa"></rect><rect x="388.46" y="293.16" width="2.89" height="2.89" style="fill:#fafafa"></rect><rect x="388.46" y="298.02" width="2.89" height="2.89" style="fill:#fafafa"></rect><rect x="388.46" y="302.87" width="2.89" height="2.89" style="fill:#fafafa"></rect><rect x="388.46" y="307.72" width="2.89" height="2.89" style="fill:#fafafa"></rect><rect x="388.46" y="312.58" width="2.89" height="2.89" style="fill:#fafafa"></rect><rect x="388.46" y="317.43" width="2.89" height="2.89" style="fill:#fafafa"></rect><rect x="388.46" y="322.28" width="2.89" height="2.89" style="fill:#fafafa"></rect><rect x="388.46" y="327.14" width="2.89" height="2.89" style="fill:#fafafa"></rect><rect x="388.46" y="331.99" width="2.89" height="2.89" style="fill:#fafafa"></rect><rect x="388.46" y="336.84" width="2.89" height="2.9" style="fill:#fafafa"></rect><rect x="388.46" y="341.69" width="2.89" height="2.9" style="fill:#fafafa"></rect><rect x="388.46" y="346.55" width="2.89" height="2.89" style="fill:#fafafa"></rect><rect x="388.46" y="351.4" width="2.89" height="2.89" style="fill:#fafafa"></rect><rect x="388.46" y="356.25" width="2.89" height="2.89" style="fill:#fafafa"></rect><rect x="388.46" y="361.11" width="2.89" height="2.89" style="fill:#fafafa"></rect><rect x="388.46" y="365.96" width="2.89" height="2.89" style="fill:#fafafa"></rect><rect x="361.22" y="292.65" width="2.89" height="2.89" style="fill:#fafafa"></rect><rect x="361.22" y="297.51" width="2.89" height="2.89" style="fill:#fafafa"></rect><rect x="361.22" y="302.36" width="2.89" height="2.89" style="fill:#fafafa"></rect><rect x="361.22" y="307.21" width="2.89" height="2.89" style="fill:#fafafa"></rect><rect x="361.22" y="312.06" width="2.89" height="2.89" style="fill:#fafafa"></rect><rect x="361.22" y="316.92" width="2.89" height="2.89" style="fill:#fafafa"></rect><rect x="361.22" y="321.77" width="2.89" height="2.89" style="fill:#fafafa"></rect><rect x="361.22" y="326.62" width="2.89" height="2.89" style="fill:#fafafa"></rect><rect x="361.22" y="331.48" width="2.89" height="2.89" style="fill:#fafafa"></rect><rect x="361.22" y="336.33" width="2.89" height="2.89" style="fill:#fafafa"></rect><rect x="365.82" y="292.65" width="2.89" height="2.89" style="fill:#fafafa"></rect><rect x="365.82" y="297.51" width="2.89" height="2.89" style="fill:#fafafa"></rect><rect x="365.82" y="302.36" width="2.89" height="2.89" style="fill:#fafafa"></rect><rect x="365.82" y="307.21" width="2.89" height="2.89" style="fill:#fafafa"></rect><rect x="365.82" y="312.06" width="2.89" height="2.89" style="fill:#fafafa"></rect><rect x="365.82" y="316.92" width="2.89" height="2.89" style="fill:#fafafa"></rect><rect x="365.82" y="321.77" width="2.89" height="2.89" style="fill:#fafafa"></rect><rect x="365.82" y="326.62" width="2.89" height="2.89" style="fill:#fafafa"></rect><rect x="365.82" y="331.48" width="2.89" height="2.89" style="fill:#fafafa"></rect><path d="M375.41,165.09a5.26,5.26,0,0,1,5.25-5.26,5,5,0,0,1,1.51.23,12.36,12.36,0,0,1-.11-1.62,11.13,11.13,0,0,1,11.13-11.14,10.64,10.64,0,0,1,2.05.2,9.73,9.73,0,0,1,18.05,4.92h.16a9,9,0,1,1,0,17.94H380.52A5.25,5.25,0,0,1,375.41,165.09Z" style="fill:#fafafa"></path><path d="M150.42,157.09H131.25a13,13,0,0,0,.08-1.4,12.62,12.62,0,0,0-12.62-12.62l-.46,0A11.16,11.16,0,0,0,96.63,147v0A10.64,10.64,0,0,0,86.5,157.09H86a5.61,5.61,0,0,0,0,11.22h64.43a5.61,5.61,0,1,0,0-11.22Z" style="fill:#fafafa"></path><path d="M286.55,97.15a23.32,23.32,0,0,0-39.79.33,12.5,12.5,0,0,0-15.9,12h-6.6a6.26,6.26,0,0,0,0,12.51H247a23.33,23.33,0,0,0,36.4,3.82q.6.06,1.2.06a14.45,14.45,0,0,0,1.91-28.78Z" style="fill:#fafafa"></path></g><g id="freepik--Shadow--inject-106"><ellipse id="freepik--path--inject-106" cx="250" cy="416.24" rx="193.89" ry="11.32" style="fill:#f5f5f5"></ellipse></g><g id="freepik--airplane-part-3--inject-106"><path d="M258.62,413.92l-1.37,2.32,1.12-8.83.95-1C260,409.64,258.62,413.92,258.62,413.92Z" style="opacity:0.1"></path><path d="M220.48,378c-1.89-.76-123.28-90.53-128.4-95.64s-4.18-13.61-4.18-13.61l-3.36-2.56s-5,54.5-3.62,60.91,35.94,40.52,35.94,40.52l5.92-12.1,7.17-9.32.57-5,4.65-5.56L130,351.35s-4.09,5-3.54,9.63-2.24,11.8-2.24,11.8l44.07,40.89,68.95-.68Z" style="fill:#0091FF"></path><path d="M237.19,413l-68.95.67-.4-.37L146.1,393.13l-21.93-20.35s2.79-7.19,2.24-11.81,3.54-9.63,3.54-9.63l5.22-15.74-4.66,5.56-.56,5-7.17,9.33-5.92,12.09s-2.37-2.34-5.9-5.91c-9.93-10.06-29-29.88-30-34.61-1.4-6.41,3.63-60.9,3.63-60.9l3.35,2.55s-.94,8.5,4.18,13.61c2.21,2.2,26,20.12,52.52,39.86,11.38,8.48,23.25,17.28,34.14,25.33,22.65,16.71,41,30.15,41.74,30.44L237,412.62Z" style="fill:#fff;isolation:isolate;opacity:0.30000000000000004"></path><path d="M237,412.62l-69.18.68L146.1,393.13l-21.93-20.35s2.79-7.19,2.24-11.81,3.54-9.63,3.54-9.63l5.22-15.74-4.66,5.56-.56,5-7.17,9.33-5.92,12.09s-2.37-2.34-5.9-5.91c1-1.15,1.9-2.31,2.84-3.48q2.88-3.57,6-6.94c2.15-2.32,4.47-4.49,6.58-6.85a6.39,6.39,0,0,0,1.38-2.1c.25-.71.3-1.48.49-2.2.64-2.41,2.81-3.84,4.52-5.51,1-.94,1.81-2,2.74-3s2-2.1,3.07-3.13c2-2,4-4.11,6-6.14l.1-.11c11.38,8.48,23.25,17.28,34.14,25.33,22.65,16.71,41,30.15,41.74,30.44Z" style="opacity:0.1"></path><path d="M163.92,413.67c-6.28-8.49-15.46-15.36,2-29.94s-13.36-25.3-6.36-40.43,21.81-12,16.13-25.43-20.19-13.38-14.17-25.49-5.66-22.85-5.66-22.85,10.9,7.77,10.55,15.43-4.55,10.16,3,16.56,19.44,14.8,18.17,22.69,2.24,20.06,8.06,14.84,19.69-5.23,29.13,4,7.72,67.22,7.72,67.22Z" style="fill:#263238"></path><path d="M163.92,413.67c-6.28-8.49-15.46-15.36,2-29.94s-13.36-25.3-6.36-40.43,21.81-12,16.13-25.43-20.19-13.38-14.17-25.49-5.66-22.85-5.66-22.85,10.9,7.77,10.55,15.43-4.55,10.16,3,16.56,19.44,14.8,18.17,22.69,2.24,20.06,8.06,14.84,19.69-5.23,29.13,4,7.72,67.22,7.72,67.22Z" style="fill:#fff;isolation:isolate;opacity:0.6000000000000001"></path><path d="M163.92,407.72c-5.3-8.34-1.16-24.93,14.54-32s21.92,4.72,21.92,4.72-5.4-14.12-17.84-9.63c0,0-3.57-12,6.25-17.84,0,0-10.33,5-10.33,13.88,0,0-8.37,1.71-10.59-9.54s10.45-17.68,17.08-15.76c0,0-8.56-6.07-17.08-5.22,0,0,7.47-10.34,15.15-5.51s5.39,11.91,5.39,11.91l4.32,2.65s8.23-8.19,16.49-5.79,17.69,32,7.05,41.44c0,0,19.89,19.94,0,26.69S163.92,407.72,163.92,407.72Z" style="fill:#fff;opacity:0.2"></path><path d="M204.64,309.48a4.29,4.29,0,0,1-.62,4.8c-2.63,2.93-7.81,7.76-14.36,8.74a3.42,3.42,0,0,1-3.09-1.16,3.65,3.65,0,0,1-.29-.37l-.24-.39a172.24,172.24,0,0,1-13.54-25.55c-3.84-9.3-6.51-19.21-5-26.8.33-1.66,4.94.88,11.12,6.46a103.75,103.75,0,0,1,7.5,7.5A122.85,122.85,0,0,1,204.64,309.48Z" style="fill:#0091FF"></path><path d="M204.64,309.48a4.29,4.29,0,0,1-.62,4.8c-2.63,2.93-7.81,7.76-14.36,8.74a3.42,3.42,0,0,1-3.09-1.16,3.65,3.65,0,0,1-.29-.37l-.24-.39a172.24,172.24,0,0,1-13.54-25.55c-3.84-9.3-6.51-19.21-5-26.8.33-1.66,4.94.88,11.12,6.46a103.75,103.75,0,0,1,7.5,7.5A122.85,122.85,0,0,1,204.64,309.48Z" style="fill:#fff;isolation:isolate;opacity:0.30000000000000004"></path><path d="M204.64,309.48a4.29,4.29,0,0,1-.62,4.8c-2.63,2.93-7.81,7.76-14.36,8.74a3.42,3.42,0,0,1-3.09-1.16,3.65,3.65,0,0,1-.29-.37l-.24-.39c2.74-4.53,13.73-9.48,13.73-9.48s-13.35-22.06-21.19-36.41a103.75,103.75,0,0,1,7.5,7.5A122.85,122.85,0,0,1,204.64,309.48Z" style="opacity:0.1"></path><path d="M187.26,284.57c.09-2,.09-3.54-1.18-4.82a5.21,5.21,0,0,1-1.05-1.4c0,2.37,0,6.46,0,7.68-.08,1.75-1.68,1.75-2.2,2.65s0,6.49,0,6.49l-3-2.46v3.4l.56,4.92.61,4.71-2.52,8.56a2.69,2.69,0,0,1-4.9.6L182.82,213l10.46,51.12Z" style="fill:#0091FF"></path><path d="M193.28,264.13l-.5,1.69-5.52,18.75c.09-2,.09-3.54-1.18-4.82a5.34,5.34,0,0,1-1.06-1.4c0,2.37,0,6.46,0,7.68-.07,1.75-1.67,1.75-2.19,2.64s0,6.49,0,6.49l-3-2.46v3.41l.55,4.92.62,4.71-2.52,8.56a2.66,2.66,0,0,1-2.58,1.93,2.63,2.63,0,0,1-2.29-1.3l0,0L182.82,213Z" style="fill:#fff;isolation:isolate;opacity:0.2"></path><path d="M187.26,284.57c.09-2,.09-3.54-1.18-4.82a5.34,5.34,0,0,1-1.06-1.4c0,2.37,0,6.46,0,7.68-.07,1.75-1.67,1.75-2.19,2.64s0,6.49,0,6.49l-3-2.46v3.41l.55,4.92.62,4.71-2.52,8.56a2.66,2.66,0,0,1-2.58,1.93,2.63,2.63,0,0,1-2.29-1.3c.23.23,1.66,1.54,2.84,0s3.13-8.9,3.13-8.9l-1.19-14.11,1.19-4.84.92,3.29,2.66-4s.44-2.29.44-2.44,1.4-8.79,1.4-8.79l2.07,2.08s4.13-10.62,5.69-11.35Z" style="opacity:0.1"></path><path d="M271.91,416.22C231.09,281,201,212.17,190.89,191a2.23,2.23,0,0,0-4.23.84c-4.51,81.05,18.23,185.3,27.75,224.41Z" style="fill:#0091FF"></path><path d="M271.91,416.21h-57.5c-4.85-19.91-13.14-56.88-19.5-99C192,298.19,189.55,278.09,188,258a533.51,533.51,0,0,1-1.77-54.11q.15-6.13.48-12.12a2.21,2.21,0,0,1,4.21-.84c1.46,3.06,3.33,7.09,5.59,12.17,6,13.4,14.66,34.05,25.54,63,6.74,18,14.35,39.36,22.68,64.21Q257.26,368,271.91,416.21Z" style="fill:#fff;isolation:isolate;opacity:0.4"></path><path d="M225.91,201.47c1.85-4.6,26.69,23.89,37.09,60.4a5.53,5.53,0,0,1-2,5.9c-4,3.07-11.73,7.91-20.23,7.57a4.39,4.39,0,0,1-3.88-2.75C232.78,262.32,217.63,222.07,225.91,201.47Z" style="fill:#0091FF"></path><path d="M263.21,263.47a5.58,5.58,0,0,1-2.17,4.3c-4,3.08-11.73,7.91-20.23,7.57a4.39,4.39,0,0,1-3.62-2.21,3.1,3.1,0,0,1-.26-.55,221.26,221.26,0,0,1-11.14-36.07c-2.59-12.65-3.58-25.81.12-35,1.11-2.76,10.53,6.43,20.12,22.14a157.67,157.67,0,0,1,17,38.27A5.5,5.5,0,0,1,263.21,263.47Z" style="fill:#fff;isolation:isolate;opacity:0.4"></path><path d="M263.21,263.47a5.58,5.58,0,0,1-2.17,4.3c-4,3.08-11.73,7.91-20.23,7.57a4.39,4.39,0,0,1-3.62-2.21c.24-3.49,16.66-14.61,25.09-10.31A4.49,4.49,0,0,1,263.21,263.47Z" style="opacity:0.1"></path><path d="M249.08,265.86c15.07-6.46,18.43.17,3.06,5.93S234,272.31,249.08,265.86Z" style="fill:#263238"></path><path d="M246,223.6a64.27,64.27,0,0,0-20.24,12.91c-2.59-12.65-3.58-25.81.12-35C227,198.7,236.44,207.89,246,223.6Z" style="opacity:0.1"></path><path d="M197.58,256A61.51,61.51,0,0,1,188,258a533.56,533.56,0,0,1-1.76-54.12c1.83,1.13,3.16,1.93,3.16,1.93S199.61,247.17,197.58,256Z" style="opacity:0.1"></path><path d="M189.35,205.85,112.41,195.4,113.9,207a9.45,9.45,0,0,0,4.93,7.12L197.58,256h0a45.4,45.4,0,0,0-.71-8.06Z" style="fill:#0091FF"></path><path d="M197.58,256l-78.75-41.83a9.45,9.45,0,0,1-4.92-7.13l-1.5-11.6,7.59,1,2.56.34,66.79,9.08,7.52,42.05A46.35,46.35,0,0,1,197.58,256Z" style="fill:#fff;isolation:isolate;opacity:0.5"></path><path d="M193.28,247.11s-68.65-35-70.23-37.35c-.94-1.39-2.2-8.15-3-13.33l2.56.34c1.13,4.85,2.38,10,2.76,11.12.75,2.14,67,34.59,67,34.59Z" style="fill:#0091FF"></path><path d="M222,266.17c-20.85-17.75-27.51-62.25-27.51-62.25l2-.78C202.44,216.54,211.13,237.18,222,266.17Z" style="opacity:0.1"></path><path d="M196.47,203.14,268.8,156l3.82,14.4A8,8,0,0,1,271,177.6l-60.55,71.83h0a12,12,0,0,1-3.21-5.52Z" style="fill:#0091FF"></path><path d="M271,177.6l-60.56,71.83a12,12,0,0,1-3.21-5.52l-10.76-40.77,67.41-44,.78-.51,4.14-2.7,3.82,14.4A8,8,0,0,1,271,177.6Z" style="fill:#fff;isolation:isolate;opacity:0.5"></path><g style="opacity:0.1"><path d="M266.33,175.64c-2.75,3-56,63.79-56.49,64.41l-.67-.58c.54-.62,53.76-61.43,56.52-64.43,1.72-1.86-.2-10.23-1.81-15.86l.78-.51C266.17,163.86,268.52,173.27,266.33,175.64Z"></path></g><path d="M271.91,416.21h-57.5c-4.85-19.91-13.14-56.88-19.5-99,11.05.61,30.83,3.16,49.78,13.14Q257.26,368,271.91,416.21Z" style="opacity:0.1"></path><path d="M193.28,416.22l6-16.34s17,4.9,18.65,5.42,7.81.7,8,2.36S237.19,413,237.19,413l2.49-6.91s9.26,1.12,10.94,1.3S260,410.7,260,410.7l7.72-10.82,12.47,8.88s13.54,7.41,11.85,7.46S193.28,416.22,193.28,416.22Z" style="fill:#0091FF"></path><path d="M193.28,416.22l6-16.34s17,4.9,18.65,5.42,7.81.7,8,2.36S237.19,413,237.19,413l2.49-6.91s9.26,1.12,10.94,1.3S260,410.7,260,410.7l7.72-10.82,12.47,8.88s13.54,7.41,11.85,7.46S193.28,416.22,193.28,416.22Z" style="fill:#fff;isolation:isolate;opacity:0.6000000000000001"></path><polygon points="156.02 416.22 173.6 401.96 192.92 410.51 203.47 416.22 156.02 416.22" style="fill:#0091FF"></polygon><polygon points="156.02 416.22 173.6 401.96 192.92 410.51 203.47 416.22 156.02 416.22" style="fill:#fff;isolation:isolate;opacity:0.5"></polygon></g><g id="freepik--airplane-part-2--inject-106"><path d="M341.3,285.84c-7.23-21.86,2.19-33.22,16.32-32s18.69-17,6.41-26.49-9.84-14.62-4.78-16.45,4.87-17.35-3.64-20.29-11-13.23,1.16-16.46c0,0-10.17,4.61-4.67,9.62,7.79,7.12,30.3,12.69,23.58,24.11s-13.33,14.28-2.12,18.43,36.32,36.46,18.65,44.72c0,0,15.75,12.44,7.41,27.79s-26.53,12.47-26.53,12.47Z" style="fill:#263238"></path><path d="M341.3,285.84c-7.23-21.86,2.19-33.22,16.32-32s18.69-17,6.41-26.49-9.84-14.62-4.78-16.45,4.87-17.35-3.64-20.29-11-13.23,1.16-16.46c0,0-10.17,4.61-4.67,9.62,7.79,7.12,30.3,12.69,23.58,24.11s-13.33,14.28-2.12,18.43,36.32,36.46,18.65,44.72c0,0,15.75,12.44,7.41,27.79s-26.53,12.47-26.53,12.47Z" style="fill:#fff;isolation:isolate;opacity:0.6000000000000001"></path><path d="M341.3,279.8c1.4-20.4,4.52-20.52,17.95-20s13.84,10,13.84,10-9.6-3.1-13.84,0c0,0,22.4.77,24.89,12.39,0,0,.21-7.47-5.42-9.93,0,0,9.56-4.28,15.82,9.93s-6.89,26.7-21.45,19.84S341.3,279.8,341.3,279.8Z" style="fill:#fff;opacity:0.2"></path><path d="M366.82,256.14c1.21-.3,11.12,3.36,10.51,10.52,0,0,9.87.18,12.37,2.29,0,0,6-1,3.44-10.31s-13.72-11.2-13.72-11.2,6.05-2.07,8.6-.09,1.68-.86,1.68-.86-6.2-8.75-9.4-10.74a10.24,10.24,0,0,0-6.74-1.31s-.37-4.17,4.93-2.29c0,0-4.9-4.7-7.8,2.29,0,0,3.85,4.86,4.08,8.48,0,0,4.65-2.69,7.44-1.16,0,0-8.24,4.27-9.12,7.2a5.67,5.67,0,0,0,.47,4.79s5.47-1.57,7.72,5.9a14.51,14.51,0,0,0-10.59-4.36C366.94,255.29,366.82,256.14,366.82,256.14Z" style="fill:#fff;opacity:0.2"></path><path d="M285.87,377.61,277,393.52l-1.65,10.21a5.15,5.15,0,0,1-4.7,3c-3.49,0-5.85-1.46-5.64,1.72s-6.81,7.13-6.81,7.13h96.69l-32.93-32Z" style="fill:#263238"></path><polygon points="281.78 414.68 286.85 408.03 297.88 409.88 301.61 414.68 303.84 413.7 306.58 403.88 324.86 399.22 348.35 413.01 349.48 415.58 278.58 415.58 281.78 414.68" style="fill:#fff;isolation:isolate;opacity:0.2"></polygon><path d="M324.86,391.34c-1.16-.61-13.72,3-14.65,2.46s-3.08-3-3.63-2.46-5,0-5,0L296,394.66l-1.39,9.22L293,400.26v-5.6s.64-4.09-1.08-3.32a3,3,0,0,1-2.87,0l-2.2,2.85-.74,5-3.28-1.4V381.55l18.77-6.05,23.26,11.9Z" style="fill:#fff;isolation:isolate;opacity:0.2"></path><path d="M280.44,376.7l35.13-96,24-5.64h13.31l5.22,5.64L369.46,285l4.33,1.4,4.39,5.26,3.81,7.59s3.85-4.29,4.59,0,6.12,14.53,4.56,12.39S366.92,389,366.92,389l5.22,12s-7.6-2.94-5.22,2.69S379,408.53,379,408.53l3,7.05H339.6l-3.85-4.47v-4.47l-14.84-5.34-4.18-9.55-12-4.23-12.08-1.71-8.51,1.71-3.74,4.23-5.59-1.58Z" style="fill:#0091FF"></path><path d="M391.14,311.6c-1.57-2.13-24.22,77.44-24.22,77.44l5.22,12s-7.6-2.93-5.22,2.68S379,408.52,379,408.52l3,7.07H339.6l-3.86-4.48v-4.47l-14.83-5.34-4.18-9.55-12-4.24-12.09-1.7-8.5,1.7-3.74,4.24-5.59-1.58,5.59-13.48,35.13-96,24-5.64h13.3l5.22,5.64L369.46,285l4.32,1.4,4.4,5.26,3.81,7.59s3.85-4.29,4.6,0S392.7,313.74,391.14,311.6Z" style="fill:#fff;isolation:isolate;opacity:0.5"></path><path d="M333.13,362.67a8,8,0,0,1,1,.18C332.92,362.66,332.35,362.57,333.13,362.67Z" style="opacity:0.1"></path><path d="M391.14,311.6c-1.57-2.13-24.22,77.44-24.22,77.44l5.22,12s-7.6-2.93-5.22,2.68S379,408.52,379,408.52l3,7.07H339.6l-3.86-4.48v-4.47l-14.83-5.34-4.18-9.55-12-4.24-12.09-1.7-8.5,1.7-3.74,4.24-5.59-1.58,4-2.46,1.63,1.22,3.72-3.52,5.36-1.86h4.41l11.39,1.86,11.4,4.26,7,5.05S337,401.62,337,402a28.69,28.69,0,0,0,1.63,3.36l9.3-.85s1.86-2.41,3.49-2.51a10.86,10.86,0,0,0,3.72-1.25l4-1.61s-3.48-6-7.67-7.78a88.36,88.36,0,0,1-14.19-7.79c-4.88-3.28-11.16-5.48-14.41-7.06s-18.14-4-18.14-4,6.74.31,9.07.33,7-1.42,8.84,0a32.15,32.15,0,0,0,8.13,4.8,98.15,98.15,0,0,1,10.93,4.68c2.79,1.46,4,3.17,7.21,3.83s5.12.68,7.21,2.65a69.7,69.7,0,0,0,7,5.89c2.32,1.64,4.88,4.66,4.18,3.15s.24-10.49-2.56-11.69-.46-2.85-6.74-6.1-8.14-5.57-11.86-8.59-3.26-5.44-7-6.56c-3.14-.94-3.44-1.64-4.93-2,2.56.42,8,1.36,9.12,2,1.63,1,4.42,4.75,5.11,5.19s3.5,2.53,5.82,3.93a28.13,28.13,0,0,1,4.18,2.87c2.33,1.77,3.72,2.5,5.12,4.11s2.33,2.58,2.33,2.58l20.06-68.09s2,1.55-2.85-2.87a113.17,113.17,0,0,1-8.61-8.71l-2.78-6.4s7.2,6.76,8.36,7.68,2.09,2.92,3.49,3.2,2.13,1.9,2.81,2.6,4.64,3,1.84-1.62a38.09,38.09,0,0,1-3.95-9.54l-3.49,1.35s-3.3-2.51-3.28-3.67-6-10.47-6-10.47l-12.56-3.95s-5.11,4.18-5.11,3.49,2.09-4.65,2.09-4.65l-3.26-4.36-12.93-2.46h13.3l5.22,5.64L369.46,285l4.32,1.4,4.4,5.26,3.81,7.59s3.85-4.29,4.6,0S392.7,313.74,391.14,311.6Z" style="opacity:0.1"></path><path d="M361,346.49l-.46,1.56-3.35,11s-7.61-6.11-14.13-8.77l-1.12-.42,3.52-10.94A45.13,45.13,0,0,1,361,346.49Z" style="fill:#263238"></path><path d="M355.12,368.52a3,3,0,0,1-.2,1.12c-.24.76-.68,1.65-1,2.35-.41,1.33-.86,2.8-1.27,4.15.59,1.52.84,4.11-1.48,3.62-1.53-.31-3.84-2.67-5.23-3.54-2.57-1.61-6.12-4.32-9.28-4.38h-.19a.45.45,0,0,1-.3-.07.45.45,0,0,1-.15-.28c-.53-2.54,2.23-6.76,5.12-6,1.13.32.95-1.59,1.51-2.25.84-1,1.36-.88,2.59-.63a23,23,0,0,1,7.63,3.68C353.86,367,355,367.52,355.12,368.52Z" style="fill:#263238"></path><path d="M349.84,391.26c-.46,1.05-1.77,2.7-.95,3.48-2.73-2.61-5.24-5.11-8.23-7.47a1.8,1.8,0,0,0-.8-.41,2.76,2.76,0,0,0-1.16.34c-1.31.5-2.93-.15-4.17.3a2,2,0,0,0-.58.31,13.92,13.92,0,0,0,.07-2.32c0-1.8,0-3.88,1-3.94s2.54.83,3.43,1.18a54.36,54.36,0,0,1,8.79,4.5c1.15.7,2.88,2,2.8,3.5A1.64,1.64,0,0,1,349.84,391.26Z" style="fill:#263238"></path><path d="M368.54,322.74l-.47,1.53-3.34,11s-7.61-6.11-14.14-8.78c-.38-.15-.75-.3-1.11-.42L353,315.15A45.13,45.13,0,0,1,368.54,322.74Z" style="fill:#263238"></path><path d="M375.27,302.51l-.46,1.55-3.35,11s-7.61-6.11-14.14-8.76c-.37-.16-.74-.3-1.1-.43l3.52-10.94A45.26,45.26,0,0,1,375.27,302.51Z" style="fill:#263238"></path><path d="M358.48,354.65h0L357.15,359s-7.61-6.11-14.13-8.77l2.92-9.08a40.05,40.05,0,0,1,5.4,1.81l.42,3.26,1.47-1.17v3.08l-2.64.8v3.39h3.11l1.22,2.29Z" style="fill:#fff;isolation:isolate;opacity:0.4"></path><path d="M354.92,369.64c-.24.76-.68,1.65-1,2.35L350,368.86l-2.35-2.49-2.1,3.69-.73-3.82L342,370.06h-4.51c1-1.55,2.56-2.7,4.21-2.24,1.12.3.94-1.6,1.5-2.26.84-1,1.36-.88,2.6-.63a23.34,23.34,0,0,1,7.63,3.68A14.76,14.76,0,0,1,354.92,369.64Z" style="fill:#fff;isolation:isolate;opacity:0.4"></path><path d="M368.07,324.27l-.76,2.5L365.74,325l-2.51,2.15L359,324.39l-2.79-4-2.29,1.16,1.2,3.71-1.2,1.06v1.82a34.8,34.8,0,0,0-3.34-1.59l2.92-9.08A45.35,45.35,0,0,1,368.07,324.27Z" style="fill:#fff;isolation:isolate;opacity:0.4"></path><path d="M374.81,304.06l-.34,1.1h-5.54l-.39-2.56-2.8.89L363.93,301l-3,6.34-.46-5.77-.62,2.67-.68,2.93c-.64-.31-1.26-.6-1.88-.84l2.93-9.09A45.25,45.25,0,0,1,374.81,304.06Z" style="fill:#fff;isolation:isolate;opacity:0.4"></path><path d="M387.46,302.25l-5.56,5.05-22.47,73.59-.1,7.35-3.11,6.5s3.52,1.37,2.82,4.38a16.61,16.61,0,0,0,0,6.2c0,.52,0,5.16,0,5.16L361,413.7l2.73,1a6.45,6.45,0,0,1-2.73-5.14c-.06-3.46.29-6.32,0-7.33s.29-.75,0-3.21a18.59,18.59,0,0,0-1.95-5.48l1.95-3.58v-8.39s2.73-5.38,3-6.24,19.53-66.95,19.53-66.95l5.13-3.2Z" style="fill:#0091FF"></path><path d="M411.37,372.81l-19.95-1.66-.81,8.67h-6.28v11.52l-6.94,1.81v12.17l-7.48,1.56.86,7.8L391.42,413S409.8,396.1,411.37,372.81Z" style="fill:#263238"></path><path d="M411.37,372.81l-19.95-1.66-.81,8.67h-6.28v11.52l-6.94,1.81v12.17l-7.48,1.56.86,7.8L391.42,413S409.8,396.1,411.37,372.81Z" style="fill:#fff;isolation:isolate;opacity:0.2"></path><path d="M368.93,416.24s20.71-15.69,25.47-46.18L414.51,372s1.91,29.27-16.66,43.59Z" style="fill:#0091FF"></path><path d="M397.85,415.59l-28.92.65s20.71-15.69,25.47-46.18L414.5,372S416.42,401.26,397.85,415.59Z" style="fill:#fff;isolation:isolate;opacity:0.6000000000000001"></path><path d="M397.85,415.59l-28.92.65s20.71-15.69,25.47-46.18L414.5,372l-19.18-.33c0,18.49-19.18,40.46-19.18,40.46l3.72-1.57s4.3-.17,6,0,9.12,1.57,9.12,1.57H382.59l-3.67,1.49a32.54,32.54,0,0,0,4.5.06c.49-.22,6.84.37,9.11,0S397.85,415.59,397.85,415.59Z" style="opacity:0.1"></path><path d="M399.51,379s-1.05,10.08-3.67,13.93L407.35,394s2.91-8.26,3.29-13.13Z" style="fill:#263238"></path><path d="M410.64,380.89c-.38,4.88-3.29,13.13-3.29,13.13l-.93-.09-4-.38-6.6-.63c1.8-2.66,2.86-8.25,3.34-11.48.09-.63.16-1.17.22-1.58.07-.56.1-.87.1-.87Z" style="fill:#263238"></path><path d="M409.43,381.59c-.31,4-2.28,10.16-3,12.34l-4-.38a2.49,2.49,0,0,0,.38-.63c0-.12.78-1.64.78-1.64h1.32l-.62-.61c-.61-.61-.34-.44-.34-.44a14.34,14.34,0,0,1,.25-2.08l1.37-.35a10.26,10.26,0,0,1-.93-1.3c-.26-.5.09-.19.43-1.32s0,0,.36-.36,0,0-.44-.6a9.67,9.67,0,0,0-1.13-1.22l-1.14,1.22h-1.39a6.18,6.18,0,0,1,0-1.84,7.63,7.63,0,0,0-1.31,1.84c-.08-.14-.48-1.49-.85-2.78.09-.63.16-1.17.22-1.58Z" style="fill:#fff;isolation:isolate;opacity:0.4"></path></g><g id="freepik--airplane-part-1--inject-106"><path d="M339,414.6s7.17-5.14,8.09-4.7,3.49,1.28,5.81,2.05a33,33,0,0,1,5.41,2.65,21.94,21.94,0,0,1,3.9,0c1.16.21,8,1.61,8,1.61H334.57Z" style="fill:#0091FF"></path><polygon points="315.78 416.22 325.21 406.81 322.81 402.02 299.14 416.22 315.78 416.22" style="fill:#0091FF"></polygon><path d="M339,414.6s7.17-5.14,8.09-4.7,3.49,1.28,5.81,2.05a33,33,0,0,1,5.41,2.65,21.94,21.94,0,0,1,3.9,0c1.16.21,8,1.61,8,1.61H334.57Z" style="fill:#fff;isolation:isolate;opacity:0.4"></path><polygon points="315.78 416.22 325.21 406.81 322.81 402.02 299.14 416.22 315.78 416.22" style="fill:#fff;isolation:isolate;opacity:0.4"></polygon><polygon points="320.32 416.22 337.98 416.22 333.88 411.36 321.81 409.86 315.15 409.86 309.97 416.22 320.32 416.22" style="fill:#0091FF"></polygon><path d="M264.29,412.24l2.1-6.41s3.14-2.87,4.18-2.24,11.22,6.54,11.22,6.54l19.53,3.45,4.2,2.64H266.74Z" style="fill:#0091FF"></path><polygon points="320.32 416.22 337.98 416.22 333.88 411.36 321.81 409.86 315.15 409.86 309.97 416.22 320.32 416.22" style="fill:#fff;isolation:isolate;opacity:0.5"></polygon><path d="M264.29,412.24l2.1-6.41s3.14-2.87,4.18-2.24,11.22,6.54,11.22,6.54l19.53,3.45,4.2,2.64H266.74Z" style="fill:#fff;isolation:isolate;opacity:0.5"></path><path d="M241.2,353.58s-13.34-19.84,10.74-23.9,33.29-15.57,20-23.77.63-21.31,4.81-21.45,22.89-15.58,4.82-25.23-14.32-26.37-14.32-26.37.43,13.89,9.5,18.09,26,.84,28,18.92S291.2,299.22,298.61,302s26.22,34.8,15.42,44.58-21.09,5.28-6.57,20.45-14.37,46.31-14.37,46.31H233Z" style="fill:#263238"></path><path d="M241.2,353.58s-13.34-19.84,10.74-23.9,33.29-15.57,20-23.77.63-21.31,4.81-21.45,22.89-15.58,4.82-25.23-14.32-26.37-14.32-26.37.43,13.89,9.5,18.09,26,.84,28,18.92S291.2,299.22,298.61,302s26.22,34.8,15.42,44.58-21.09,5.28-6.57,20.45-14.37,46.31-14.37,46.31H233Z" style="fill:#fff;isolation:isolate;opacity:0.6000000000000001"></path><path d="M239.18,346.53s-.46-7.85,14.88-10.72,17.55,13.72,17.55,13.72.58-10.18-3.26-13.21c0,0,9.09-7.09,18.5,0s6.62,20.47,6.62,20.47-10.64-10.77-27,0c0,0,23.23-9.22,31.37,6.84s0,26.32,0,26.32-14-13-21.16-9.05c0,0-.3-18.1-21.08-18.9C255.64,362,258.49,347.57,239.18,346.53Z" style="fill:#fff;opacity:0.2"></path><path d="M242.36,368.17s11.86-6.45,23,0,7.32,28.25,7.32,28.25,5.93-6.27,4-11.16c0,0,11.86-4.53,16.22,5.59s-.7,21.13-1.57,20.77-44.74-3.13-44.74-3.13Z" style="fill:#fff;opacity:0.2"></path><path d="M276.72,329.63c3-.18,19.88-5.12,15.18-14.77,0,0,8.19,11.28-5.24,16.34,0,0,14.13,7.73,12.74,18.78,0,0,9.94-3.78,11.33-13.38s-2.79-19.38-10.81-20.56c0,0,3.49-2.11,7.5,2.08,0,0-5.23-11.17-10.47-13.61s-11.16,4-11.16,4,.29-5.61,5.93-6.45c0,0-1.92-8-8-8.54,0,0,2.61-1.23,5.23,1.39,0,0,12.56-15.29,7.15-25.26,0,0,1.58,5.9-1.39,10.26s-11.86,7.33-11.86,7.33,1.57.34,1.22,3.31a6.52,6.52,0,0,0-7.33-3.84,5.34,5.34,0,0,0-4.81,5.93s2.54-1.73,5.51.88c0,0-7.33-3.32-9.07,3.31s6.1,9.32,9.77,6.75c0,0-.18-2.73,2.26-2.73,0,0-2.09.86-.69,4,0,0-3,2.41-1.92,5s2.79,2.43,2.79,2.43,3.14-2.55,5.41,0a8.33,8.33,0,0,0-6.11,2.61c-2.79,2.86,2.09,8.21,2.09,8.21a31,31,0,0,1-13.42,6.21,33.69,33.69,0,0,0,13.08-2.57Z" style="fill:#fff;opacity:0.2"></path><path d="M249.51,366.23c.47.08,10.47-7.43,10.47-7.43l3.49,5.76-4.89,17.59,3.72,6.39-.46,9.41,7.67,2.86,1.17,4.53,7.75,2.13,2.25,1.67,4.41,2.48h3l9.76,3.28h-160l104.63-51.42Z" style="fill:#263238"></path><path d="M265.91,414.19s1.57-25.5-8.55-49.63l1.57-2.18s9.42,16.25,9.42,51.81Z" style="fill:#263238"></path><path d="M265.91,414.19s1.57-25.5-8.55-49.63l1.57-2.18s9.42,16.25,9.42,51.81Z" style="fill:#fff;isolation:isolate;opacity:0.2"></path><path d="M222.48,341.14s28.78-2.11,48.14.86l-1.75,1.06s-36.1,0-44.12,1.46S222.48,341.14,222.48,341.14Z" style="fill:#263238"></path><path d="M222.48,341.14s28.78-2.11,48.14.86l-1.75,1.06s-36.1,0-44.12,1.46S222.48,341.14,222.48,341.14Z" style="fill:#fff;isolation:isolate;opacity:0.2"></path><polygon points="235.93 402.48 258.76 394.33 275.5 373.29 276.72 375.47 260.85 396.42 232.68 412.3 235.93 402.48" style="fill:#263238"></polygon><polygon points="235.93 402.48 258.76 394.33 275.5 373.29 276.72 375.47 260.85 396.42 232.68 412.3 235.93 402.48" style="fill:#fff;isolation:isolate;opacity:0.30000000000000004"></polygon><path d="M167.1,352.07l5.67,4.59-8.72,22.92s59.77-2.92,63.37-4.2,12.09-2.55,11.75-5.34S228,345.27,228,345.27,182.23,343.87,167.1,352.07Z" style="fill:#263238"></path><polygon points="166.65 362.88 165.99 363.49 166.32 363.38 165.99 364.08 166.65 363.48 166.41 364.08 166.95 363.2 166.65 362.88" style="fill:#263238"></polygon><path d="M177.35,364.56a4,4,0,0,1-.49,0c-5-.84-3.46-11.28-3.39-11.72l.87.14c0,.1-1.51,10,2.66,10.71a2.14,2.14,0,0,0,1.67-.45c2.94-2.18,4.07-10.65,4.08-10.74l.87.12c0,.36-1.19,8.93-4.43,11.33A3.06,3.06,0,0,1,177.35,364.56Z" style="fill:#263238"></path><path d="M166.91,363.63l-.65-.59c3.67-4.05,3.72-9.9,3.72-10h.88C170.86,353.34,170.82,359.32,166.91,363.63Z" style="fill:#263238"></path><g style="isolation:isolate;opacity:0.2"><path d="M177.35,364.56a4,4,0,0,1-.49,0c-5-.84-3.46-11.28-3.39-11.72l.87.14c0,.1-1.51,10,2.66,10.71a2.14,2.14,0,0,0,1.67-.45c2.94-2.18,4.07-10.65,4.08-10.74l.87.12c0,.36-1.19,8.93-4.43,11.33A3.06,3.06,0,0,1,177.35,364.56Z" style="fill:#fff"></path></g><g style="isolation:isolate;opacity:0.2"><path d="M166.91,363.63l-.65-.59c3.67-4.05,3.72-9.9,3.72-10h.88C170.86,353.34,170.82,359.32,166.91,363.63Z" style="fill:#fff"></path></g><path d="M171.18,366.23a1,1,0,0,1-.26,0c-2.34-.61-2.18-9.77-2.07-12.56l.88,0c-.21,5.39.28,11.38,1.41,11.68a.29.29,0,0,0,.21-.06c1.4-.84,3.36-7.35,4.27-11.26l.85.2c-.24,1.07-2.49,10.5-4.66,11.82A1.22,1.22,0,0,1,171.18,366.23Z" style="fill:#263238"></path><path d="M182.66,376.22l-.85-.22c2.34-9.16-1.25-23.49-1.29-23.63l.86-.22C181.53,352.74,185.06,366.84,182.66,376.22Z" style="fill:#263238"></path><g style="isolation:isolate;opacity:0.30000000000000004"><path d="M171.18,366.23a1,1,0,0,1-.26,0c-2.34-.61-2.18-9.77-2.07-12.56l.88,0c-.21,5.39.28,11.38,1.41,11.68a.29.29,0,0,0,.21-.06c1.4-.84,3.36-7.35,4.27-11.26l.85.2c-.24,1.07-2.49,10.5-4.66,11.82A1.22,1.22,0,0,1,171.18,366.23Z" style="fill:#fff"></path></g><g style="isolation:isolate;opacity:0.30000000000000004"><path d="M182.66,376.22l-.85-.22c2.34-9.16-1.25-23.49-1.29-23.63l.86-.22C181.53,352.74,185.06,366.84,182.66,376.22Z" style="fill:#fff"></path></g><path d="M158.71,377.1l.58-3.81s3.43-1.78,3.72-1.88,6,0,6,0l2,2.51-.76,5.66Z" style="fill:#263238"></path><path d="M158.71,377.1l.58-3.81s3.43-1.78,3.72-1.88,6,0,6,0l2,2.51-.76,5.66Z" style="fill:#fff;isolation:isolate;opacity:0.2"></path><polygon points="169 371.41 165.93 374.1 167.46 378.97 170.27 379.58 171.03 373.92 169 371.41" style="opacity:0.2"></polygon><path d="M171.17,377.6l.26-3.84s3.27-2.05,3.55-2.18,6-.5,6-.5l2.24,2.33-.29,5.7Z" style="fill:#263238"></path><path d="M171.17,377.6l.26-3.84s3.27-2.05,3.55-2.18,6-.5,6-.5l2.24,2.33-.29,5.7Z" style="fill:#fff;isolation:isolate;opacity:0.2"></path><polygon points="180.95 371.08 178.14 374.1 171.43 373.76 174.98 371.58 180.95 371.08" style="fill:#fff;isolation:isolate;opacity:0.2"></polygon><path d="M167.79,352.63s15.27-3.9,29.92-2.95l-2.35,25.82s-32.09,5.32-47.09,2.09l3.86-3.67,2.42,2.1,1.74-.87,1.83.78.35-.61,2.18,1.28-.35-1.45,2.1,1.05h2.18l1.65-.27,1.66-1.57.79.79.43.78,1.83.27,4-.09,1.52-.53v-1l2,.52,3.14-.17.09-2.71,5.23.44,1-2,.09-3.31,2.35-.17-1.31-1,1.83-1.14,1.22-1.48-.87-2.27.09-2.09,2.53-3-3.4,2.52-2.1-.34s-.17-.09-.26-.61-.08-1.92-.08-2.27.08-1.92.08-1.92l-1-.09-1.13-.7.61,2.27-.78-1-.88-.87-3,1.48L179.84,358l-2.53.52-.18-4.62-1,4.36-2.81.79L171.9,354l-2.61,3.66-.09-1.48-1,.17-1.3,1.14-1.75-.53Z" style="fill:#263238"></path><path d="M167.79,352.63s15.27-3.9,29.92-2.95l-2.35,25.82s-32.09,5.32-47.09,2.09l3.86-3.67,2.42,2.1,1.74-.87,1.83.78.35-.61,2.18,1.28-.35-1.45,2.1,1.05h2.18l1.65-.27,1.66-1.57.79.79.43.78,1.83.27,4-.09,1.52-.53v-1l2,.52,3.14-.17.09-2.71,5.23.44,1-2,.09-3.31,2.35-.17-1.31-1,1.83-1.14,1.22-1.48-.87-2.27.09-2.09,2.53-3-3.4,2.52-2.1-.34s-.17-.09-.26-.61-.08-1.92-.08-2.27.08-1.92.08-1.92l-1-.09-1.13-.7.61,2.27-.78-1-.88-.87-3,1.48L179.84,358l-2.53.52-.18-4.62-1,4.36-2.81.79L171.9,354l-2.61,3.66-.09-1.48-1,.17-1.3,1.14-1.75-.53Z" style="fill:#fff;isolation:isolate;opacity:0.4"></path><path d="M165.1,356.92l1.75.15.87-1.22v-1.63l.58,1.42h1.22v.56l2-2.45-.58-1s.7,1,1,.81a12.09,12.09,0,0,0,1-.81l-.62,1.1,1.22,4.42,2-.58,1.05-4-.81-.46-.64.52.81-1,.64.46.76-.46v-1l.69.87,2.39-.47-2.33.88s-.46.64-.4.81-.18,3.72-.18,3.72l2-.29,1.28-2.67,3.14-1.63,1.16-.52s.58.93.58.75v-1.45l-.76-.64h1.17l.35.64,1.1.7,1.22-2.5s-12.65.65-21,2.65Z" style="fill:#fff;isolation:isolate;opacity:0.2"></path><path d="M152.13,373.92l2.45,2.68-.29,1,.75-1,1.28-.85,1.69.85-.41.87.7-.4.41.52v-1.84l2,1.32s-.64,1.33-.47,1.16,1-.87,1-.87l.76.52-.87-1.28-.12-.52,1.22.52v.7l.46-.7h2.74v.23l-.41.57-1,.54,1.81-.41v-.64s.94-.11,1,.06a4.2,4.2,0,0,0,.34.64v-1l-.34-.23.87-1,.58.23.7,1-.3,1.11.82-1.11,4.65.18v.69l.46-.87,1.63-.52,1,1.1-.32-1.1.32-.76,1.05.41,1-.41v1l.47-.13.52.4-.23-.75.23-.41,1.4-.18.87.82-.47-1.28.47-1.51h1.86l-1.57,6L145.1,380.9l2.68-2.27.49-1Z" style="fill:#fff;isolation:isolate;opacity:0.2"></path><path d="M200.77,349.53l16.57.45,3.4,22.12-22.24,3.37v-5.82l2.35,1.76,1.66-5.18.87,4.85.53-3.87.78.7s1.22,2,1.4,2.13.78,1.69,1,1,.52-4.13.52-4.13a1.68,1.68,0,0,1,.78.44c.35.35,2.36,1.65,2.36,1.65l-.36-3.31a4.78,4.78,0,0,1,1.58.5c.26.29,1.66-.5,1.48-.76a12.49,12.49,0,0,1-.5-1.84s-.46-.91.06-.76,1.05-1,1.05-1,1-.1,1.22-.61.7-1.34.7-1.34l-1.31-1.65,1-2.24-3.49,2.31.44-3.18.43-2.09s-1-.82-1.3-.63-1.41,1.24-1.32,1.67-.73,1.31-.73,1.31H208l-2.27-2.35-.53,3.57-1.48-3.57-2.89,2.8-1.59-2.25Z" style="fill:#fff;isolation:isolate;opacity:0.4"></path><polygon points="219.6 349.98 225.1 350.38 232.68 369.13 223.53 371.41 223.35 367.82 224.84 368.78 226.14 367.74 227.89 367.74 228.59 365.64 226.14 364.18 227.97 364.08 227.02 362.88 227.1 360.69 226.14 357.45 224.92 360.69 223.88 357.45 223.09 359.61 222.04 359.28 222.13 352.46 221.45 354.66 219.17 352.46 219.6 349.98" style="fill:#fff;isolation:isolate;opacity:0.4"></polygon><path d="M256,379.5a2.44,2.44,0,0,0-.13-.5h0a4.3,4.3,0,0,0-.2-.54l0-.06a4,4,0,0,0-.27-.5c-1.86-2.84,0-4.58,0-4.58l-.26-1.91-.67-4.85s2.09-6.06,0-7.76a12.85,12.85,0,0,1-3.16-3.94L243.65,342l-7.39,0,1.16-4.59s-49.3.75-60.95,7.1a44.43,44.43,0,0,0-9.37,7.55c4.54-1.3,14.13-3.2,31.58-3.42l-2.25,25.65c-18.91,2.55-40,4.52-49.4,2.31l-.09.05c-.14.08-.46.26-.93.55l-.32.19-.43.26-.44.26c-.75.44-1.66,1-2.71,1.66l-1.46.91h0a17.35,17.35,0,0,0-2.25-.08l-.48,0a8.19,8.19,0,0,0-1,.13,3.13,3.13,0,0,0-.44.1l-.05,0a2.2,2.2,0,0,0-.36.13,1.58,1.58,0,0,0-.7.51l-.07.11a.42.42,0,0,0,0,.1.87.87,0,0,0-.07.37c0,.17,0,.34,0,.5a5.23,5.23,0,0,1-.08.75,1.68,1.68,0,0,1-.09.32.35.35,0,0,1-.07.15c-.28.56-.92.71-2.26.34a2,2,0,0,0-.35-.08,2.32,2.32,0,0,0-.45-.06,2.57,2.57,0,0,0-.62,0l-.27,0a3.66,3.66,0,0,0-.5.12l-.24.09a1.45,1.45,0,0,0-.22.09,2.81,2.81,0,0,0-.59.41l-.19.19a2.13,2.13,0,0,0-.25.34,2.39,2.39,0,0,0-.37,1.1c0,.1,0,.2,0,.29v.21a1.1,1.1,0,0,1,0,.18.5.5,0,0,0,0,.12.84.84,0,0,1-.06.14,3.26,3.26,0,0,1-1.28,1.29,1.4,1.4,0,0,1-.26.16.21.21,0,0,1-.1.06l-.44.26h0l-.57.3c-.19.1-.4.19-.6.28l-.3.14c-.61.28-1.21.54-1.74.77l-.5.23a5.39,5.39,0,0,0-1.07.59,1.27,1.27,0,0,0-.13.11,6.55,6.55,0,0,0-1,1.39l-.18.33-.19.35a29.36,29.36,0,0,1-2.36,4.23c-.28.26-.56.54-.82.8l-.11.11c-.65.65-1.27,1.3-1.84,2-.19.22-.39.44-.56.65l-.07.07-.47.57a21.73,21.73,0,0,0-2.59,3.83c-.08.17-.17.33-.24.5l-.26.59a5,5,0,0,0-.18.5.25.25,0,0,1,0,.09c-.06.19-.11.37-.16.56a5.41,5.41,0,0,0-.12.55,4.33,4.33,0,0,0-.08.5s0,.09,0,.14a4.36,4.36,0,0,0,0,.51,4.78,4.78,0,0,0,1.23,3.26l84.75,2.06,2.37,0,36.34.88,2.74-7,13.6-10.36v-5.07l.7-1.2c.11-.16.36-.58.64-1.06l.33-.55.22-.38.39-.66q.09-.17.18-.3l.08-.13a.35.35,0,0,1,.07-.12l.13-.24.08-.14,1.27-2.14S256.63,382.44,256,379.5Zm-56.72-5.58,2.22-25.28c5,0,10.51.12,16.71.43l3.27,21.41C215.46,371.49,207.65,372.74,199.25,373.92ZM224.06,370l-3.9-20.86c1.75.09,3.55.2,5.4.32L233,368.43S229.59,369.08,224.06,370Z" style="fill:#0091FF"></path><path d="M256,379.5a2.44,2.44,0,0,0-.13-.5h0a4.3,4.3,0,0,0-.2-.54l0-.06a4,4,0,0,0-.27-.5c-1.86-2.84,0-4.58,0-4.58l-.26-1.91-.67-4.85s2.09-6.06,0-7.76a12.85,12.85,0,0,1-3.16-3.94L243.65,342l-7.39,0,1.16-4.59s-49.3.75-60.95,7.1a44.43,44.43,0,0,0-9.37,7.55c4.54-1.3,14.13-3.2,31.58-3.42l-2.25,25.65c-18.91,2.55-40,4.52-49.4,2.31l-.09.05c-.14.08-.46.26-.93.55l-.32.19-.43.26-.44.26c-.75.44-1.66,1-2.71,1.66l-1.46.91h0a17.35,17.35,0,0,0-2.25-.08l-.48,0a8.19,8.19,0,0,0-1,.13,3.13,3.13,0,0,0-.44.1l-.05,0a2.2,2.2,0,0,0-.36.13,1.58,1.58,0,0,0-.7.51l-.07.11a.42.42,0,0,0,0,.1.87.87,0,0,0-.07.37c0,.17,0,.34,0,.5a5.23,5.23,0,0,1-.08.75,1.68,1.68,0,0,1-.09.32,1,1,0,0,1-.07.15c-.28.56-.92.71-2.26.34a2,2,0,0,0-.35-.08,2.32,2.32,0,0,0-.45-.06,2.57,2.57,0,0,0-.62,0l-.27,0a3.66,3.66,0,0,0-.5.12l-.24.09a1.45,1.45,0,0,0-.22.09,2.81,2.81,0,0,0-.59.41l-.19.19a2.13,2.13,0,0,0-.25.34,2.39,2.39,0,0,0-.37,1.1c0,.1,0,.2,0,.29v.21a1.1,1.1,0,0,1,0,.18.5.5,0,0,0,0,.12.84.84,0,0,1-.06.14,3.26,3.26,0,0,1-1.28,1.29,1.4,1.4,0,0,1-.26.16.21.21,0,0,1-.1.06l-.44.26h0l-.57.3c-.19.1-.4.19-.6.28l-.3.14c-.61.28-1.21.54-1.74.77l-.5.23a5.39,5.39,0,0,0-1.07.59,1.27,1.27,0,0,0-.13.11,6.55,6.55,0,0,0-1,1.39l-.18.33-.19.35a29.36,29.36,0,0,1-2.36,4.23c-.28.26-.56.54-.82.8l-.11.11c-.65.65-1.27,1.3-1.84,2-.19.22-.39.44-.56.65l-.07.07-.47.57a21.73,21.73,0,0,0-2.59,3.83c-.08.17-.17.33-.24.5l-.26.59a5,5,0,0,0-.18.5.25.25,0,0,1,0,.09c-.06.19-.11.37-.16.56a5.41,5.41,0,0,0-.12.55,4.33,4.33,0,0,0-.08.5s0,.09,0,.14a4.36,4.36,0,0,0,0,.51,4.78,4.78,0,0,0,1.23,3.26l84.75,2.06,2.37,0,36.34.88,2.74-7,13.6-10.36v-5.07l0-.05.67-1.15c.11-.16.36-.58.64-1.06l.33-.55.22-.38.39-.66q.09-.17.18-.3l.08-.13a.35.35,0,0,1,.07-.12l.13-.24.08-.14,1.27-2.14S256.63,382.44,256,379.5Zm-56.72-5.58,2.22-25.28c5,0,10.51.12,16.71.43l3.27,21.41C215.46,371.49,207.65,372.74,199.25,373.92ZM224.06,370l-3.9-20.86c1.75.09,3.55.2,5.4.32L233,368.43S229.59,369.08,224.06,370Z" style="fill:#fff;isolation:isolate;opacity:0.7000000000000001"></path><path d="M185.68,402.48l9.77.73-5.78,1.2-.37.07c-1.64,1.85-4.29,1-5.74,1.34l-.54,0a9,9,0,0,0-1.44.23l-.39.07L170,408.49s2.06-1.47,6.44-4l.27-.16c.38-2.38,4.79.27,5.14-2.87.11-.08.24-.15.36-.22,1.06-.57,2.19-1.17,3.39-1.79l.3-.16a8.18,8.18,0,0,1,4.82-2.63l.43,0c1.81-.85,3.57,0,4.48-2.16l.36-.17a488,488,0,0,1,59.09-22.86l.26,1.91s-1.86,1.74,0,4.58a4.41,4.41,0,0,1,.5,1.1,297.87,297.87,0,0,0-56.69,17.18l-.31.13c-1.47,2.08-3.24,2.08-5.44,2.42l-.3.14-.33.14a2.92,2.92,0,0,0-3.83,1.84l-.3.15C187.64,401.48,186.66,402,185.68,402.48Z" style="fill:#0091FF"></path><path d="M195.8,384.22c-25.81,2.26-57.89-3.79-57.89-3.79a17.81,17.81,0,0,1,2.73.06h0l1.46-.91C154.66,383.58,195.8,384.22,195.8,384.22Z" style="opacity:0.1"></path><path d="M131,383.84a4,4,0,0,1,1.69.12c1.47.41,2.08.19,2.33-.49a39.27,39.27,0,0,0,8.1,1.26c10.67.89,11.9,1.41,16.25,2.28s8.35.7,13.51,1.39S136.67,387.24,131,383.84Z" style="opacity:0.1"></path><path d="M189.69,396.43c-4.88-1.75-15.17-2.9-25.46-3.11-8.55-.17-30.62-3.36-37.82-4.43,1.25-.68,2.22-1.45,2.18-2.27a33.35,33.35,0,0,1,9.13,1.92c3.83,1.61,16.74,3.52,22.84,3.7s30.06-.49,38.58,3.94,35.73,6.7,36.77,7.74S194.58,398.17,189.69,396.43Z" style="opacity:0.1"></path><path d="M144.17,403.21s-10.63-2.59-11.34-2.59-7.67-1.05-7.67-1.05l-8.3-1.05c.3-.3.61-.61.93-.91.67-.66,1.74-3.18,2.73-4.91,2.66,2.07,6,4.63,6.91,5.13,1.57.86,13.6,2.43,13.6,2.43Z" style="opacity:0.1"></path><path d="M251.94,392.12l-.7,1.2v5.07l-13.6,10.36-2.74,7-36.34-.88c.6-1,1-1.89.69-2.26-.84-1-22.11-11.28-22.11-11.28L174,399.57c.52,0,16.91,5.17,19.35,6.68S205,411.78,205,411.78l28,2.41s3.57-7.15,4.09-7.31,11.51-7.31,11.51-7.31.17-5.51.7-5.46S251.63,392.66,251.94,392.12Z" style="opacity:0.1"></path><path d="M196.19,414.85l-84.75-2.06a4.78,4.78,0,0,1-1.23-3.26,5.76,5.76,0,0,1,.12-1.15c1.34,1.43,3,3.05,3.9,3.05,1.51,0,9,.87,9.54.87s12.55-1.05,12.55-1.05,2.09-2.9,4.19-2,13.77,3,13.77,3,5.24-.18,6.46,0,5.76-.35,7.5,0,3,.07,7.15,0,8,.67,9.94.15C186.63,412.12,192.5,413.74,196.19,414.85Z" style="opacity:0.1"></path><path d="M169.78,413.86s7.17-5.14,8.09-4.69,3.49,1.27,5.82,2a33.21,33.21,0,0,1,5.4,2.65,22,22,0,0,1,3.9,0c1.16.21,8,1.61,8,1.61H165.38Z" style="fill:#0091FF"></path><polygon points="146.59 415.48 156.02 406.07 153.62 401.28 129.95 415.48 146.59 415.48" style="fill:#0091FF"></polygon><path d="M169.78,413.86s7.17-5.14,8.09-4.69,3.49,1.27,5.82,2a33.21,33.21,0,0,1,5.4,2.65,22,22,0,0,1,3.9,0c1.16.21,8,1.61,8,1.61H165.38Z" style="fill:#fff;isolation:isolate;opacity:0.4"></path><polygon points="146.59 415.48 156.02 406.07 153.62 401.28 129.95 415.48 146.59 415.48" style="fill:#fff;isolation:isolate;opacity:0.4"></polygon><polygon points="151.14 415.48 168.79 415.48 164.69 410.62 152.62 409.12 145.96 409.12 140.78 415.48 151.14 415.48" style="fill:#0091FF"></polygon><path d="M95.1,411.5l2.1-6.41s3.14-2.87,4.18-2.24,11.22,6.54,11.22,6.54l19.53,3.45,4.2,2.64H97.55Z" style="fill:#0091FF"></path><polygon points="151.14 415.48 168.79 415.48 164.69 410.62 152.62 409.12 145.96 409.12 140.78 415.48 151.14 415.48" style="fill:#fff;isolation:isolate;opacity:0.5"></polygon><path d="M95.1,411.5l2.1-6.41s3.14-2.87,4.18-2.24,11.22,6.54,11.22,6.54l19.53,3.45,4.2,2.64H97.55Z" style="fill:#fff;isolation:isolate;opacity:0.5"></path><path d="M254.4,358.8s-8.61-.16-10.53-.29,6.11-2.2,6.11-2.2l-6.11-12.8-4.19-.22-11.67,2,5.25-3.26,4.16-4.59L236.26,342l7.39,0,7.59,12.82A12.85,12.85,0,0,0,254.4,358.8Z" style="opacity:0.1"></path><path d="M255.33,386.4l-1.27,2.14-.08.14-.13.24a.35.35,0,0,0-.07.12l-.08.13q-.09.13-.18.3l-.39.66-.22.38-.33.55c-.28.48-.53.9-.64,1.06l-.67,1.15-15.34-2.07,16-1.25,2.46-5.22v-5.15L253,377.1l1.06-4.51L253,369.1l-3,.94,4.08-5.49v-1.67l.34-4.08c2.09,1.7,0,7.76,0,7.76l.67,4.85.26,1.91s-1.86,1.74,0,4.58a4,4,0,0,1,.27.5l0,.06a4.3,4.3,0,0,1,.2.54h0a2.44,2.44,0,0,1,.13.5C256.63,382.44,255.33,386.4,255.33,386.4Z" style="opacity:0.1"></path><polygon points="251.94 416.24 271.61 416.24 267.19 405.34 258.58 400.7 249.51 405.34 246.04 409.12 241.2 412.3 239.68 415.48 251.94 416.24" style="fill:#0091FF"></polygon><path d="M280.44,414.9s-7.67-18.12-6.74-18.36,3.18-3.49,3.33-4.42-1-5.27-1-5.27,3.29-7.3,4.45-8.22a27.76,27.76,0,0,1,3.26-2s15.35,21.52,17.9,38.87l-23.17.77Z" style="fill:#0091FF"></path><polygon points="271.61 416.24 251.94 416.24 239.68 415.48 241.2 412.31 246.05 409.12 249.51 405.34 258.58 400.7 267.19 405.34 271.61 416.24" style="fill:#fff;isolation:isolate;opacity:0.6000000000000001"></polygon><path d="M278.43,416.24l2-1.34s-7.67-18.13-6.74-18.36,3.18-3.49,3.33-4.42-1-5.27-1-5.27,3.29-7.3,4.45-8.22a24.47,24.47,0,0,1,3.25-2h0s15.35,21.52,17.9,38.87Z" style="fill:#fff;isolation:isolate;opacity:0.7000000000000001"></path><path d="M267.19,405.34l4.42,10.9H251.94l-12.26-.76s3.17-1.49,4-1.29,14.06.15,14.58,0,7.15-1.88,7.15-1.88l-.34-5.24-2.44-1.73h-2.8l-1.22-4.64Z" style="opacity:0.1"></path><path d="M286.11,403.93a7.76,7.76,0,0,1,.73,1.41C286.91,405.78,286.63,405.15,286.11,403.93Z" style="opacity:0.1"></path><path d="M278.43,416.24l2-1.34s-7.67-18.13-6.74-18.36,3.18-3.49,3.33-4.42-1-5.27-1-5.27,3.29-7.3,4.45-8.22a24.47,24.47,0,0,1,3.25-2c-.16.22-2.79,3.79-3.13,4.29s-3.32,5.61-3.32,5.61l1.4,3.44s1.92,1.75,4.18,6.47c1.34,2.78,2.56,5.76,3.29,7.51-1.89-3.24-6.95-10.66-6.95-10.66s-.52,3-1.05,3.15-.52.62-.87,1.19,1.75,4.18,1.92,5.6,2.87,11,2.87,11l19.57,1.28Z" style="opacity:0.1"></path></g></svg>
