<svg viewBox="0 0 120 152" fill="none" xmlns="http://www.w3.org/2000/svg">
  <rect width="120" height="152" fill="#FFFFFF" rx="4"/>
  <rect width="120" height="36" fill="#1FA1F8" rx="4"/>
  <rect width="120" height="10" fill="#1FA1F8" y="26"/>
  <rect x="12" y="10" width="56" height="7" rx="2" fill="#fff" opacity=".95"/>
  <rect x="12" y="21" width="38" height="3" rx="1.5" fill="#fff" opacity=".6"/>
  <rect x="12" y="43" width="20" height="2" rx="1" fill="#0F1B2D" opacity=".2"/>
  <rect x="36" y="43" width="20" height="2" rx="1" fill="#0F1B2D" opacity=".2"/>
  <rect x="60" y="43" width="20" height="2" rx="1" fill="#0F1B2D" opacity=".2"/>
  <rect x="12" y="54" width="3" height="14" rx="1.5" fill="#1FA1F8" opacity=".8"/>
  <rect x="19" y="54" width="30" height="3.5" rx="1.5" fill="#0F1B2D" opacity=".7"/>
  <rect x="19" y="62" width="89" height="2.5" rx="1" fill="#0F1B2D" opacity=".13"/>
  <rect x="19" y="68" width="75" height="2.5" rx="1" fill="#0F1B2D" opacity=".13"/>
  <rect x="12" y="80" width="3" height="14" rx="1.5" fill="#1FA1F8" opacity=".8"/>
  <rect x="19" y="80" width="30" height="3.5" rx="1.5" fill="#0F1B2D" opacity=".7"/>
  <rect x="19" y="88" width="89" height="2.5" rx="1" fill="#0F1B2D" opacity=".13"/>
  <rect x="19" y="94" width="66" height="2.5" rx="1" fill="#0F1B2D" opacity=".13"/>
  <rect x="19" y="100" width="80" height="2.5" rx="1" fill="#0F1B2D" opacity=".13"/>
  <rect x="12" y="112" width="3" height="14" rx="1.5" fill="#1FA1F8" opacity=".8"/>
  <rect x="19" y="112" width="30" height="3.5" rx="1.5" fill="#0F1B2D" opacity=".7"/>
  <rect x="19" y="120" width="26" height="6" rx="3" fill="#1FA1F8" opacity=".15"/>
  <rect x="49" y="120" width="22" height="6" rx="3" fill="#1FA1F8" opacity=".15"/>
  <rect x="75" y="120" width="30" height="6" rx="3" fill="#1FA1F8" opacity=".15"/>
  <rect x="19" y="130" width="24" height="6" rx="3" fill="#1FA1F8" opacity=".15"/>
  <rect x="47" y="130" width="28" height="6" rx="3" fill="#1FA1F8" opacity=".15"/>
</svg>