<svg width="123" height="38" viewBox="0 0 123 38" fill="none" xmlns="http://www.w3.org/2000/svg">
<path d="M21.4999 29.512C18.8648 29.5121 17.5289 29.512 11.1016 29.238C10.0052 29.1912 9.41976 26.9638 10.2597 26.2576C17.7201 19.9849 28.0391 6.0349 29 6.01222C30.1655 5.98472 31.5 6.01222 31.5 6.01222H31.7393C32.1037 6.01222 32.3544 6.37613 32.2189 6.71437C31.0182 9.71271 26.2603 21.5811 23.6209 27.9794C23.5444 28.1647 23.6229 28.441 23.7464 28.599C24.0525 28.9907 23.7262 29.512 23.229 29.512H21.4999Z" fill="#0091FF"/>
<path d="M33.9936 6.63551C34.1442 6.25362 34.5092 6.01221 34.9197 6.01221H35.9343C36.5924 6.01221 37.0711 6.637 36.8998 7.27246L31.6276 26.8326C31.4425 27.5193 32.0132 28.1743 32.7188 28.0849L37.2395 27.5122C37.518 27.5123 37.6195 27.8784 37.3795 28.0196C35.5542 29.0941 31.4419 31.5028 31.2395 31.5123C31.042 31.5217 29.0049 31.5169 28.0317 31.514C27.7095 31.513 27.4089 31.3575 27.2282 31.0907C26.7233 30.3455 25.7392 28.8224 25.7393 28.2723C25.7395 27.6077 32.5985 10.1747 33.9936 6.63551Z" fill="#0091FF"/>
<path d="M43.8233 27.68C42.8793 27.68 42.0633 27.528 41.3753 27.224C40.6873 26.92 40.1593 26.488 39.7913 25.928C39.4233 25.352 39.2393 24.672 39.2393 23.888C39.2393 23.152 39.4073 22.504 39.7433 21.944C40.0793 21.368 40.5913 20.888 41.2793 20.504C41.9833 20.12 42.8553 19.848 43.8953 19.688L47.9033 19.04V21.68L44.5433 22.28C44.0313 22.376 43.6393 22.544 43.3673 22.784C43.0953 23.008 42.9593 23.336 42.9593 23.768C42.9593 24.168 43.1113 24.48 43.4153 24.704C43.7193 24.928 44.0953 25.04 44.5433 25.04C45.1353 25.04 45.6553 24.912 46.1033 24.656C46.5513 24.4 46.8953 24.056 47.1353 23.624C47.3913 23.176 47.5193 22.688 47.5193 22.16V18.752C47.5193 18.256 47.3193 17.84 46.9193 17.504C46.5353 17.168 46.0073 17 45.3353 17C44.6953 17 44.1273 17.176 43.6313 17.528C43.1513 17.88 42.7993 18.344 42.5753 18.92L39.6953 17.552C39.9513 16.816 40.3593 16.184 40.9193 15.656C41.4793 15.128 42.1513 14.72 42.9353 14.432C43.7193 14.144 44.5753 14 45.5033 14C46.6073 14 47.5833 14.2 48.4313 14.6C49.2793 15 49.9353 15.56 50.3993 16.28C50.8793 16.984 51.1193 17.808 51.1193 18.752V27.392H47.7593V25.28L48.5753 25.136C48.1913 25.712 47.7673 26.192 47.3033 26.576C46.8393 26.944 46.3193 27.216 45.7433 27.392C45.1673 27.584 44.5273 27.68 43.8233 27.68Z" fill="#0091FF"/>
<path d="M52 27.392V14.288H55.36V16.88L55.168 16.304C55.472 15.52 55.96 14.944 56.632 14.576C57.32 14.192 58.12 14 59.032 14C60.024 14 60.888 14.208 61.624 14.624C62.376 15.04 62.96 15.624 63.376 16.376C63.792 17.112 64 17.976 64 18.968V27.392H60.4V19.736C60.4 19.224 60.296 18.784 60.088 18.416C59.896 18.048 59.616 17.76 59.248 17.552C58.896 17.344 58.48 17.24 58 17.24C57.536 17.24 57.12 17.344 56.752 17.552C56.384 17.76 56.096 18.048 55.888 18.416C55.696 18.784 55.6 19.224 55.6 19.736V27.392H52Z" fill="#0091FF"/>
<path d="M71.696 27.456C70.416 27.456 69.272 27.152 68.264 26.544C67.256 25.936 66.456 25.112 65.864 24.072C65.288 23.032 65 21.88 65 20.616C65 19.336 65.296 18.184 65.888 17.16C66.48 16.12 67.28 15.296 68.288 14.688C69.296 14.08 70.424 13.776 71.672 13.776C72.632 13.776 73.48 13.96 74.216 14.328C74.968 14.68 75.56 15.184 75.992 15.84L75.44 16.56V9H79.04V27.168H75.68V24.768L76.016 25.512C75.568 26.152 74.96 26.64 74.192 26.976C73.424 27.296 72.592 27.456 71.696 27.456ZM72.128 24.216C72.784 24.216 73.36 24.064 73.856 23.76C74.352 23.456 74.736 23.032 75.008 22.488C75.296 21.944 75.44 21.32 75.44 20.616C75.44 19.912 75.296 19.288 75.008 18.744C74.736 18.2 74.352 17.776 73.856 17.472C73.36 17.168 72.784 17.016 72.128 17.016C71.472 17.016 70.88 17.176 70.352 17.496C69.84 17.8 69.44 18.224 69.152 18.768C68.864 19.296 68.72 19.912 68.72 20.616C68.72 21.32 68.864 21.944 69.152 22.488C69.44 23.032 69.84 23.456 70.352 23.76C70.88 24.064 71.472 24.216 72.128 24.216Z" fill="#0091FF"/>
<path d="M86.84 27.48C85.448 27.48 84.24 27.176 83.216 26.568C82.192 25.944 81.4 25.112 80.84 24.072C80.28 23.032 80 21.88 80 20.616C80 19.304 80.288 18.136 80.864 17.112C81.456 16.088 82.248 15.28 83.24 14.688C84.232 14.096 85.352 13.8 86.6 13.8C87.64 13.8 88.56 13.968 89.36 14.304C90.16 14.624 90.832 15.08 91.376 15.672C91.936 16.264 92.36 16.952 92.648 17.736C92.936 18.504 93.08 19.344 93.08 20.256C93.08 20.512 93.064 20.768 93.032 21.024C93.016 21.264 92.976 21.472 92.912 21.648H83.096V19.008H90.872L89.168 20.256C89.328 19.568 89.32 18.96 89.144 18.432C88.968 17.888 88.656 17.464 88.208 17.16C87.776 16.84 87.24 16.68 86.6 16.68C85.976 16.68 85.44 16.832 84.992 17.136C84.544 17.44 84.208 17.888 83.984 18.48C83.76 19.072 83.672 19.792 83.72 20.64C83.656 21.376 83.744 22.024 83.984 22.584C84.224 23.144 84.592 23.584 85.088 23.904C85.584 24.208 86.184 24.36 86.888 24.36C87.528 24.36 88.072 24.232 88.52 23.976C88.984 23.72 89.344 23.368 89.6 22.92L92.48 24.288C92.224 24.928 91.816 25.488 91.256 25.968C90.712 26.448 90.064 26.824 89.312 27.096C88.56 27.352 87.736 27.48 86.84 27.48Z" fill="#0091FF"/>
<path d="M100.696 27.456C99.416 27.456 98.272 27.152 97.264 26.544C96.256 25.936 95.456 25.112 94.864 24.072C94.288 23.032 94 21.88 94 20.616C94 19.336 94.296 18.184 94.888 17.16C95.48 16.12 96.28 15.296 97.288 14.688C98.296 14.08 99.424 13.776 100.672 13.776C101.632 13.776 102.48 13.96 103.216 14.328C103.968 14.68 104.56 15.184 104.992 15.84L104.44 16.56V9H108.04V27.168H104.68V24.768L105.016 25.512C104.568 26.152 103.96 26.64 103.192 26.976C102.424 27.296 101.592 27.456 100.696 27.456ZM101.128 24.216C101.784 24.216 102.36 24.064 102.856 23.76C103.352 23.456 103.736 23.032 104.008 22.488C104.296 21.944 104.44 21.32 104.44 20.616C104.44 19.912 104.296 19.288 104.008 18.744C103.736 18.2 103.352 17.776 102.856 17.472C102.36 17.168 101.784 17.016 101.128 17.016C100.472 17.016 99.88 17.176 99.352 17.496C98.84 17.8 98.44 18.224 98.152 18.768C97.864 19.296 97.72 19.912 97.72 20.616C97.72 21.32 97.864 21.944 98.152 22.488C98.44 23.032 98.84 23.456 99.352 23.76C99.88 24.064 100.472 24.216 101.128 24.216Z" fill="#0091FF"/>
</svg>
