<svg width="126" height="32" viewBox="0 0 126 32" fill="none" xmlns="http://www.w3.org/2000/svg">
<path d="M15.4999 23.512C12.8648 23.5121 11.5289 23.512 5.10161 23.238C4.00519 23.1912 3.41976 20.9638 4.25972 20.2576C11.7201 13.9849 22.0391 0.0348976 23 0.0122236C24.1655 -0.0152795 25.5 0.0122236 25.5 0.0122236H25.7393C26.1037 0.0122236 26.3544 0.376135 26.2189 0.714369C25.0182 3.71271 20.2603 15.5811 17.6209 21.9794C17.5444 22.1647 17.6229 22.441 17.7464 22.599C18.0525 22.9907 17.7262 23.512 17.229 23.512H15.4999Z" fill="#0091FF"/>
<path d="M27.9936 0.635508C28.1442 0.253623 28.5092 0.0122092 28.9197 0.0122092H29.9343C30.5924 0.0122092 31.0711 0.636997 30.8998 1.27246L25.6276 20.8326C25.4425 21.5193 26.0132 22.1743 26.7188 22.0849L31.2395 21.5122C31.518 21.5123 31.6195 21.8784 31.3795 22.0196C29.5542 23.0941 25.4419 25.5028 25.2395 25.5123C25.042 25.5217 23.0049 25.5169 22.0317 25.514C21.7095 25.513 21.4089 25.3575 21.2282 25.0907C20.7233 24.3455 19.7392 22.8224 19.7393 22.2723C19.7395 21.6077 26.5985 4.17466 27.9936 0.635508Z" fill="#0091FF"/>
<path d="M37.8233 21.68C36.8793 21.68 36.0633 21.528 35.3753 21.224C34.6873 20.92 34.1593 20.488 33.7913 19.928C33.4233 19.352 33.2393 18.672 33.2393 17.888C33.2393 17.152 33.4073 16.504 33.7433 15.944C34.0793 15.368 34.5913 14.888 35.2793 14.504C35.9833 14.12 36.8553 13.848 37.8953 13.688L41.9033 13.04V15.68L38.5433 16.28C38.0313 16.376 37.6393 16.544 37.3673 16.784C37.0953 17.008 36.9593 17.336 36.9593 17.768C36.9593 18.168 37.1113 18.48 37.4153 18.704C37.7193 18.928 38.0953 19.04 38.5433 19.04C39.1353 19.04 39.6553 18.912 40.1033 18.656C40.5513 18.4 40.8953 18.056 41.1353 17.624C41.3913 17.176 41.5193 16.688 41.5193 16.16V12.752C41.5193 12.256 41.3193 11.84 40.9193 11.504C40.5353 11.168 40.0073 11 39.3353 11C38.6953 11 38.1273 11.176 37.6313 11.528C37.1513 11.88 36.7993 12.344 36.5753 12.92L33.6953 11.552C33.9513 10.816 34.3593 10.184 34.9193 9.656C35.4793 9.128 36.1513 8.72 36.9353 8.432C37.7193 8.144 38.5753 8 39.5033 8C40.6073 8 41.5833 8.2 42.4313 8.6C43.2793 9 43.9353 9.56 44.3993 10.28C44.8793 10.984 45.1193 11.808 45.1193 12.752V21.392H41.7593V19.28L42.5753 19.136C42.1913 19.712 41.7673 20.192 41.3033 20.576C40.8393 20.944 40.3193 21.216 39.7433 21.392C39.1673 21.584 38.5273 21.68 37.8233 21.68Z" fill="#0091FF"/>
<path d="M46 21.392V8.288H49.36V10.88L49.168 10.304C49.472 9.52 49.96 8.944 50.632 8.576C51.32 8.192 52.12 8 53.032 8C54.024 8 54.888 8.208 55.624 8.624C56.376 9.04 56.96 9.624 57.376 10.376C57.792 11.112 58 11.976 58 12.968V21.392H54.4V13.736C54.4 13.224 54.296 12.784 54.088 12.416C53.896 12.048 53.616 11.76 53.248 11.552C52.896 11.344 52.48 11.24 52 11.24C51.536 11.24 51.12 11.344 50.752 11.552C50.384 11.76 50.096 12.048 49.888 12.416C49.696 12.784 49.6 13.224 49.6 13.736V21.392H46Z" fill="#0091FF"/>
<path d="M65.696 21.456C64.416 21.456 63.272 21.152 62.264 20.544C61.256 19.936 60.456 19.112 59.864 18.072C59.288 17.032 59 15.88 59 14.616C59 13.336 59.296 12.184 59.888 11.16C60.48 10.12 61.28 9.296 62.288 8.688C63.296 8.08 64.424 7.776 65.672 7.776C66.632 7.776 67.48 7.96 68.216 8.328C68.968 8.68 69.56 9.184 69.992 9.84L69.44 10.56V3H73.04V21.168H69.68V18.768L70.016 19.512C69.568 20.152 68.96 20.64 68.192 20.976C67.424 21.296 66.592 21.456 65.696 21.456ZM66.128 18.216C66.784 18.216 67.36 18.064 67.856 17.76C68.352 17.456 68.736 17.032 69.008 16.488C69.296 15.944 69.44 15.32 69.44 14.616C69.44 13.912 69.296 13.288 69.008 12.744C68.736 12.2 68.352 11.776 67.856 11.472C67.36 11.168 66.784 11.016 66.128 11.016C65.472 11.016 64.88 11.176 64.352 11.496C63.84 11.8 63.44 12.224 63.152 12.768C62.864 13.296 62.72 13.912 62.72 14.616C62.72 15.32 62.864 15.944 63.152 16.488C63.44 17.032 63.84 17.456 64.352 17.76C64.88 18.064 65.472 18.216 66.128 18.216Z" fill="#0091FF"/>
<path d="M80.84 21.48C79.448 21.48 78.24 21.176 77.216 20.568C76.192 19.944 75.4 19.112 74.84 18.072C74.28 17.032 74 15.88 74 14.616C74 13.304 74.288 12.136 74.864 11.112C75.456 10.088 76.248 9.28005 77.24 8.68805C78.232 8.09605 79.352 7.80005 80.6 7.80005C81.64 7.80005 82.56 7.96805 83.36 8.30405C84.16 8.62405 84.832 9.08005 85.376 9.67205C85.936 10.264 86.36 10.952 86.648 11.736C86.936 12.504 87.08 13.344 87.08 14.256C87.08 14.512 87.064 14.768 87.032 15.024C87.016 15.264 86.976 15.472 86.912 15.648H77.096V13.008H84.872L83.168 14.256C83.328 13.568 83.32 12.96 83.144 12.432C82.968 11.888 82.656 11.464 82.208 11.16C81.776 10.84 81.24 10.68 80.6 10.68C79.976 10.68 79.44 10.832 78.992 11.136C78.544 11.44 78.208 11.888 77.984 12.48C77.76 13.072 77.672 13.792 77.72 14.64C77.656 15.376 77.744 16.024 77.984 16.584C78.224 17.144 78.592 17.584 79.088 17.904C79.584 18.208 80.184 18.36 80.888 18.36C81.528 18.36 82.072 18.232 82.52 17.976C82.984 17.72 83.344 17.368 83.6 16.92L86.48 18.288C86.224 18.928 85.816 19.488 85.256 19.968C84.712 20.448 84.064 20.824 83.312 21.096C82.56 21.352 81.736 21.48 80.84 21.48Z" fill="#0091FF"/>
<path d="M94.696 21.456C93.416 21.456 92.272 21.152 91.264 20.544C90.256 19.936 89.456 19.112 88.864 18.072C88.288 17.032 88 15.88 88 14.616C88 13.336 88.296 12.184 88.888 11.16C89.48 10.12 90.28 9.296 91.288 8.688C92.296 8.08 93.424 7.776 94.672 7.776C95.632 7.776 96.48 7.96 97.216 8.328C97.968 8.68 98.56 9.184 98.992 9.84L98.44 10.56V3H102.04V21.168H98.68V18.768L99.016 19.512C98.568 20.152 97.96 20.64 97.192 20.976C96.424 21.296 95.592 21.456 94.696 21.456ZM95.128 18.216C95.784 18.216 96.36 18.064 96.856 17.76C97.352 17.456 97.736 17.032 98.008 16.488C98.296 15.944 98.44 15.32 98.44 14.616C98.44 13.912 98.296 13.288 98.008 12.744C97.736 12.2 97.352 11.776 96.856 11.472C96.36 11.168 95.784 11.016 95.128 11.016C94.472 11.016 93.88 11.176 93.352 11.496C92.84 11.8 92.44 12.224 92.152 12.768C91.864 13.296 91.72 13.912 91.72 14.616C91.72 15.32 91.864 15.944 92.152 16.488C92.44 17.032 92.84 17.456 93.352 17.76C93.88 18.064 94.472 18.216 95.128 18.216Z" fill="#0091FF"/>
<path d="M33.482 30V28.404L32.096 25.8H32.822L33.8 27.732L34.778 25.8H35.504L34.118 28.404V30H33.482ZM37.3977 30.072C37.1137 30.072 36.8597 30.008 36.6357 29.88C36.4117 29.752 36.2357 29.572 36.1077 29.34C35.9797 29.104 35.9157 28.828 35.9157 28.512C35.9157 28.196 35.9797 27.922 36.1077 27.69C36.2357 27.454 36.4117 27.272 36.6357 27.144C36.8597 27.016 37.1157 26.952 37.4037 26.952C37.6917 26.952 37.9457 27.016 38.1657 27.144C38.3897 27.272 38.5637 27.454 38.6877 27.69C38.8157 27.922 38.8797 28.196 38.8797 28.512C38.8797 28.828 38.8157 29.104 38.6877 29.34C38.5597 29.572 38.3837 29.752 38.1597 29.88C37.9397 30.008 37.6857 30.072 37.3977 30.072ZM37.3977 29.466C37.5497 29.466 37.6897 29.432 37.8177 29.364C37.9457 29.296 38.0477 29.192 38.1237 29.052C38.2037 28.908 38.2437 28.728 38.2437 28.512C38.2437 28.292 38.2037 28.112 38.1237 27.972C38.0477 27.832 37.9457 27.728 37.8177 27.66C37.6937 27.592 37.5557 27.558 37.4037 27.558C37.2517 27.558 37.1117 27.592 36.9837 27.66C36.8557 27.728 36.7517 27.832 36.6717 27.972C36.5957 28.112 36.5577 28.292 36.5577 28.512C36.5577 28.84 36.6397 29.082 36.8037 29.238C36.9717 29.39 37.1697 29.466 37.3977 29.466ZM40.7313 30.072C40.3713 30.072 40.0973 29.962 39.9093 29.742C39.7253 29.518 39.6333 29.194 39.6333 28.77V27.024H40.2693V28.692C40.2693 28.936 40.3213 29.128 40.4253 29.268C40.5333 29.404 40.6973 29.472 40.9173 29.472C41.1373 29.472 41.3213 29.398 41.4693 29.25C41.6173 29.102 41.6913 28.888 41.6913 28.608V27.024H42.3273V30H41.7753L41.7213 29.556H41.6913C41.6113 29.7 41.4873 29.822 41.3193 29.922C41.1513 30.022 40.9553 30.072 40.7313 30.072ZM43.255 30V29.448H43.981V27.774C43.981 27.642 43.917 27.576 43.789 27.576H43.315V27.024H44.029C44.193 27.024 44.327 27.072 44.431 27.168C44.535 27.26 44.587 27.39 44.587 27.558V27.63H44.617C44.661 27.406 44.755 27.238 44.899 27.126C45.047 27.01 45.261 26.952 45.541 26.952H46.003V27.624H45.355C45.119 27.624 44.937 27.706 44.809 27.87C44.681 28.034 44.617 28.23 44.617 28.458V29.448H45.541V30H43.255ZM51.9563 26.568C51.8163 26.568 51.6983 26.524 51.6023 26.436C51.5103 26.344 51.4643 26.232 51.4643 26.1C51.4643 25.968 51.5103 25.858 51.6023 25.77C51.6983 25.682 51.8163 25.638 51.9563 25.638C52.1003 25.638 52.2183 25.682 52.3103 25.77C52.4063 25.858 52.4543 25.968 52.4543 26.1C52.4543 26.232 52.4063 26.344 52.3103 26.436C52.2183 26.524 52.1003 26.568 51.9563 26.568ZM50.3243 31.32V30.768H51.5003C51.6323 30.768 51.6983 30.702 51.6983 30.57V27.774C51.6983 27.642 51.6323 27.576 51.5003 27.576H50.7683V27.024H51.6203C51.8683 27.024 52.0483 27.082 52.1603 27.198C52.2763 27.31 52.3343 27.49 52.3343 27.738V30.606C52.3343 30.854 52.2763 31.034 52.1603 31.146C52.0483 31.262 51.8683 31.32 51.6203 31.32H50.3243ZM55.3859 30.072C55.1019 30.072 54.8479 30.008 54.6239 29.88C54.3999 29.752 54.2239 29.572 54.0959 29.34C53.9679 29.104 53.9039 28.828 53.9039 28.512C53.9039 28.196 53.9679 27.922 54.0959 27.69C54.2239 27.454 54.3999 27.272 54.6239 27.144C54.8479 27.016 55.1039 26.952 55.3919 26.952C55.6799 26.952 55.9339 27.016 56.1539 27.144C56.3779 27.272 56.5519 27.454 56.6759 27.69C56.8039 27.922 56.8679 28.196 56.8679 28.512C56.8679 28.828 56.8039 29.104 56.6759 29.34C56.5479 29.572 56.3719 29.752 56.1479 29.88C55.9279 30.008 55.6739 30.072 55.3859 30.072ZM55.3859 29.466C55.5379 29.466 55.6779 29.432 55.8059 29.364C55.9339 29.296 56.0359 29.192 56.1119 29.052C56.1919 28.908 56.2319 28.728 56.2319 28.512C56.2319 28.292 56.1919 28.112 56.1119 27.972C56.0359 27.832 55.9339 27.728 55.8059 27.66C55.6819 27.592 55.5439 27.558 55.3919 27.558C55.2399 27.558 55.0999 27.592 54.9719 27.66C54.8439 27.728 54.7399 27.832 54.6599 27.972C54.5839 28.112 54.5459 28.292 54.5459 28.512C54.5459 28.84 54.6279 29.082 54.7919 29.238C54.9599 29.39 55.1579 29.466 55.3859 29.466ZM59.1456 30.072C58.9256 30.072 58.7396 30.028 58.5876 29.94C58.4396 29.848 58.3256 29.722 58.2456 29.562H58.2096L58.1556 30H57.6096V25.68H58.2456V27.408C58.3176 27.288 58.4316 27.182 58.5876 27.09C58.7436 26.998 58.9296 26.952 59.1456 26.952C59.3936 26.952 59.6156 27.012 59.8116 27.132C60.0076 27.248 60.1616 27.422 60.2736 27.654C60.3896 27.886 60.4476 28.172 60.4476 28.512C60.4476 28.852 60.3896 29.138 60.2736 29.37C60.1616 29.602 60.0076 29.778 59.8116 29.898C59.6156 30.014 59.3936 30.072 59.1456 30.072ZM59.0136 29.466C59.2416 29.466 59.4296 29.388 59.5776 29.232C59.7296 29.072 59.8056 28.834 59.8056 28.518C59.8056 28.198 59.7296 27.958 59.5776 27.798C59.4296 27.638 59.2416 27.558 59.0136 27.558C58.7856 27.558 58.5956 27.638 58.4436 27.798C58.2956 27.954 58.2216 28.192 58.2216 28.512C58.2216 28.828 58.2956 29.066 58.4436 29.226C58.5956 29.386 58.7856 29.466 59.0136 29.466ZM66.2029 30.072C65.8109 30.072 65.4989 29.98 65.2669 29.796C65.0349 29.612 64.9029 29.368 64.8709 29.064H65.5249C65.5489 29.204 65.6189 29.318 65.7349 29.406C65.8549 29.494 66.0129 29.538 66.2089 29.538C66.3969 29.538 66.5409 29.5 66.6409 29.424C66.7449 29.344 66.7969 29.252 66.7969 29.148C66.7969 28.996 66.7349 28.892 66.6109 28.836C66.4909 28.78 66.3129 28.738 66.0769 28.71C65.8729 28.686 65.6869 28.64 65.5189 28.572C65.3549 28.5 65.2249 28.404 65.1289 28.284C65.0329 28.16 64.9849 28.006 64.9849 27.822C64.9849 27.562 65.0869 27.352 65.2909 27.192C65.4949 27.032 65.7789 26.952 66.1429 26.952C66.5069 26.952 66.7889 27.034 66.9889 27.198C67.1889 27.362 67.3049 27.586 67.3369 27.87H66.7249C66.7089 27.75 66.6469 27.656 66.5389 27.588C66.4309 27.516 66.2969 27.48 66.1369 27.48C65.9729 27.48 65.8429 27.512 65.7469 27.576C65.6509 27.636 65.6029 27.716 65.6029 27.816C65.6029 28.032 65.8349 28.164 66.2989 28.212C66.5189 28.236 66.7149 28.278 66.8869 28.338C67.0589 28.394 67.1949 28.484 67.2949 28.608C67.3949 28.728 67.4449 28.898 67.4449 29.118C67.4489 29.298 67.3969 29.46 67.2889 29.604C67.1849 29.748 67.0389 29.862 66.8509 29.946C66.6669 30.03 66.4509 30.072 66.2029 30.072ZM69.8126 30.072C69.5246 30.072 69.2706 30.008 69.0506 29.88C68.8306 29.748 68.6586 29.566 68.5346 29.334C68.4106 29.102 68.3486 28.832 68.3486 28.524C68.3486 28.212 68.4086 27.938 68.5286 27.702C68.6526 27.466 68.8246 27.282 69.0446 27.15C69.2686 27.018 69.5266 26.952 69.8186 26.952C70.1066 26.952 70.3546 27.018 70.5626 27.15C70.7706 27.278 70.9306 27.45 71.0426 27.666C71.1586 27.882 71.2166 28.12 71.2166 28.38C71.2166 28.42 71.2166 28.464 71.2166 28.512C71.2166 28.556 71.2146 28.606 71.2106 28.662H68.9726C68.9926 28.938 69.0826 29.148 69.2426 29.292C69.4026 29.432 69.5906 29.502 69.8066 29.502C69.9946 29.502 70.1426 29.464 70.2506 29.388C70.3626 29.308 70.4446 29.2 70.4966 29.064H71.1386C71.0666 29.348 70.9166 29.588 70.6886 29.784C70.4606 29.976 70.1686 30.072 69.8126 30.072ZM69.8126 27.504C69.6166 27.504 69.4426 27.564 69.2906 27.684C69.1386 27.8 69.0406 27.964 68.9966 28.176H70.5806C70.5646 27.976 70.4866 27.814 70.3466 27.69C70.2066 27.566 70.0286 27.504 69.8126 27.504ZM73.1042 30.072C72.8682 30.072 72.6702 30.032 72.5102 29.952C72.3502 29.868 72.2302 29.758 72.1502 29.622C72.0702 29.482 72.0302 29.33 72.0302 29.166C72.0302 28.874 72.1362 28.646 72.3482 28.482C72.5642 28.318 72.8682 28.236 73.2602 28.236H74.0282V28.17C74.0282 27.722 73.8202 27.498 73.4042 27.498C73.2322 27.498 73.0862 27.536 72.9662 27.612C72.8502 27.684 72.7722 27.802 72.7322 27.966H72.0962C72.1282 27.654 72.2622 27.408 72.4982 27.228C72.7382 27.044 73.0402 26.952 73.4042 26.952C73.8442 26.952 74.1642 27.06 74.3642 27.276C74.5642 27.492 74.6642 27.79 74.6642 28.17V30H74.1242L74.0702 29.562H74.0282C73.9402 29.702 73.8302 29.822 73.6982 29.922C73.5662 30.022 73.3682 30.072 73.1042 30.072ZM73.2242 29.538C73.4842 29.538 73.6782 29.46 73.8062 29.304C73.9382 29.144 74.0102 28.942 74.0222 28.698H73.3262C73.0982 28.698 72.9362 28.736 72.8402 28.812C72.7482 28.884 72.7022 28.986 72.7022 29.118C72.7022 29.25 72.7482 29.354 72.8402 29.43C72.9362 29.502 73.0642 29.538 73.2242 29.538ZM75.6339 30V29.448H76.3599V27.774C76.3599 27.642 76.2959 27.576 76.1679 27.576H75.6939V27.024H76.4079C76.5719 27.024 76.7059 27.072 76.8099 27.168C76.9139 27.26 76.9659 27.39 76.9659 27.558V27.63H76.9959C77.0399 27.406 77.1339 27.238 77.2779 27.126C77.4259 27.01 77.6399 26.952 77.9199 26.952H78.3819V27.624H77.7339C77.4979 27.624 77.3159 27.706 77.1879 27.87C77.0599 28.034 76.9959 28.23 76.9959 28.458V29.448H77.9199V30H75.6339ZM80.6115 30.072C80.3355 30.072 80.0875 30.008 79.8675 29.88C79.6515 29.752 79.4815 29.572 79.3575 29.34C79.2335 29.104 79.1715 28.828 79.1715 28.512C79.1715 28.196 79.2335 27.922 79.3575 27.69C79.4855 27.458 79.6575 27.278 79.8735 27.15C80.0895 27.018 80.3355 26.952 80.6115 26.952C80.9915 26.952 81.2975 27.048 81.5295 27.24C81.7655 27.428 81.9155 27.688 81.9795 28.02H81.3135C81.2735 27.876 81.1915 27.762 81.0675 27.678C80.9475 27.594 80.7935 27.552 80.6055 27.552C80.4695 27.552 80.3395 27.588 80.2155 27.66C80.0955 27.732 79.9975 27.84 79.9215 27.984C79.8495 28.124 79.8135 28.3 79.8135 28.512C79.8135 28.72 79.8495 28.896 79.9215 29.04C79.9975 29.184 80.0955 29.294 80.2155 29.37C80.3395 29.442 80.4695 29.478 80.6055 29.478C80.7975 29.478 80.9515 29.436 81.0675 29.352C81.1835 29.268 81.2655 29.152 81.3135 29.004H81.9795C81.8995 29.332 81.7435 29.592 81.5115 29.784C81.2795 29.976 80.9795 30.072 80.6115 30.072ZM82.8052 30V25.68H83.4412V27.468C83.5212 27.32 83.6492 27.198 83.8252 27.102C84.0012 27.002 84.1992 26.952 84.4192 26.952C84.7872 26.952 85.0672 27.064 85.2592 27.288C85.4512 27.508 85.5472 27.826 85.5472 28.242V30H84.9112V28.332C84.9112 28.084 84.8512 27.892 84.7312 27.756C84.6112 27.62 84.4452 27.552 84.2332 27.552C84.0132 27.552 83.8252 27.626 83.6692 27.774C83.5172 27.922 83.4412 28.136 83.4412 28.416V30H82.8052ZM87.7648 30.036C87.6168 30.036 87.4908 29.988 87.3868 29.892C87.2828 29.792 87.2308 29.672 87.2308 29.532C87.2308 29.392 87.2828 29.274 87.3868 29.178C87.4908 29.082 87.6168 29.034 87.7648 29.034C87.9168 29.034 88.0428 29.082 88.1428 29.178C88.2468 29.274 88.2988 29.392 88.2988 29.532C88.2988 29.672 88.2468 29.792 88.1428 29.892C88.0428 29.988 87.9168 30.036 87.7648 30.036ZM93.4662 30V25.8H94.0902L95.8482 28.878V25.8H96.4542V30H95.8302L94.0722 26.922V30H93.4662ZM98.2878 30.072C98.0518 30.072 97.8538 30.032 97.6938 29.952C97.5338 29.868 97.4138 29.758 97.3338 29.622C97.2538 29.482 97.2138 29.33 97.2138 29.166C97.2138 28.874 97.3198 28.646 97.5318 28.482C97.7478 28.318 98.0518 28.236 98.4438 28.236H99.2118V28.17C99.2118 27.722 99.0038 27.498 98.5878 27.498C98.4158 27.498 98.2698 27.536 98.1498 27.612C98.0338 27.684 97.9558 27.802 97.9158 27.966H97.2798C97.3118 27.654 97.4458 27.408 97.6818 27.228C97.9218 27.044 98.2238 26.952 98.5878 26.952C99.0278 26.952 99.3478 27.06 99.5478 27.276C99.7478 27.492 99.8478 27.79 99.8478 28.17V30H99.3078L99.2538 29.562H99.2118C99.1238 29.702 99.0138 29.822 98.8818 29.922C98.7498 30.022 98.5518 30.072 98.2878 30.072ZM98.4078 29.538C98.6678 29.538 98.8618 29.46 98.9898 29.304C99.1218 29.144 99.1938 28.942 99.2058 28.698H98.5098C98.2818 28.698 98.1198 28.736 98.0238 28.812C97.9318 28.884 97.8858 28.986 97.8858 29.118C97.8858 29.25 97.9318 29.354 98.0238 29.43C98.1198 29.502 98.2478 29.538 98.4078 29.538ZM101.771 30L100.481 27.024H101.201L102.155 29.328L103.115 27.024H103.829L102.533 30H101.771ZM105.693 26.568C105.553 26.568 105.435 26.524 105.339 26.436C105.247 26.344 105.201 26.232 105.201 26.1C105.201 25.968 105.247 25.858 105.339 25.77C105.435 25.682 105.553 25.638 105.693 25.638C105.837 25.638 105.955 25.682 106.047 25.77C106.143 25.858 106.191 25.968 106.191 26.1C106.191 26.232 106.143 26.344 106.047 26.436C105.955 26.524 105.837 26.568 105.693 26.568ZM104.499 30V29.448H105.435V27.774C105.435 27.642 105.371 27.576 105.243 27.576H104.583V27.024H105.357C105.605 27.024 105.785 27.082 105.897 27.198C106.013 27.31 106.071 27.49 106.071 27.738V29.448H107.007V30H104.499ZM109.285 29.142C109.101 29.142 108.931 29.112 108.775 29.052L108.625 29.232C108.577 29.292 108.563 29.35 108.583 29.406C108.607 29.458 108.661 29.484 108.745 29.484H109.531C109.879 29.484 110.159 29.558 110.371 29.706C110.587 29.85 110.695 30.072 110.695 30.372C110.695 30.56 110.647 30.73 110.551 30.882C110.459 31.038 110.309 31.162 110.101 31.254C109.897 31.346 109.627 31.392 109.291 31.392C108.867 31.392 108.525 31.312 108.265 31.152C108.009 30.996 107.881 30.76 107.881 30.444C107.881 30.332 107.907 30.228 107.959 30.132C108.015 30.04 108.087 29.956 108.175 29.88C108.067 29.8 108.001 29.688 107.977 29.544C107.957 29.396 108.001 29.254 108.109 29.118L108.373 28.782C108.185 28.582 108.091 28.336 108.091 28.044C108.091 27.848 108.137 27.668 108.229 27.504C108.325 27.336 108.461 27.202 108.637 27.102C108.817 27.002 109.033 26.952 109.285 26.952C109.449 26.952 109.601 26.976 109.741 27.024H110.863V27.444L110.341 27.474V27.528C110.425 27.684 110.467 27.856 110.467 28.044C110.467 28.24 110.419 28.422 110.323 28.59C110.231 28.758 110.097 28.892 109.921 28.992C109.745 29.092 109.533 29.142 109.285 29.142ZM109.285 28.632C109.461 28.632 109.605 28.58 109.717 28.476C109.833 28.372 109.891 28.228 109.891 28.044C109.891 27.868 109.833 27.728 109.717 27.624C109.605 27.52 109.461 27.468 109.285 27.468C109.105 27.468 108.957 27.52 108.841 27.624C108.729 27.728 108.673 27.868 108.673 28.044C108.673 28.228 108.729 28.372 108.841 28.476C108.957 28.58 109.105 28.632 109.285 28.632ZM108.481 30.396C108.481 30.556 108.557 30.674 108.709 30.75C108.865 30.826 109.059 30.864 109.291 30.864C109.539 30.864 109.735 30.822 109.879 30.738C110.023 30.654 110.095 30.536 110.095 30.384C110.095 30.256 110.043 30.154 109.939 30.078C109.835 30.006 109.659 29.97 109.411 29.97H108.709C108.557 30.09 108.481 30.232 108.481 30.396ZM112.678 30.072C112.442 30.072 112.244 30.032 112.084 29.952C111.924 29.868 111.804 29.758 111.724 29.622C111.644 29.482 111.604 29.33 111.604 29.166C111.604 28.874 111.71 28.646 111.922 28.482C112.138 28.318 112.442 28.236 112.834 28.236H113.602V28.17C113.602 27.722 113.394 27.498 112.978 27.498C112.806 27.498 112.66 27.536 112.54 27.612C112.424 27.684 112.346 27.802 112.306 27.966H111.67C111.702 27.654 111.836 27.408 112.072 27.228C112.312 27.044 112.614 26.952 112.978 26.952C113.418 26.952 113.738 27.06 113.938 27.276C114.138 27.492 114.238 27.79 114.238 28.17V30H113.698L113.644 29.562H113.602C113.514 29.702 113.404 29.822 113.272 29.922C113.14 30.022 112.942 30.072 112.678 30.072ZM112.798 29.538C113.058 29.538 113.252 29.46 113.38 29.304C113.512 29.144 113.584 28.942 113.596 28.698H112.9C112.672 28.698 112.51 28.736 112.414 28.812C112.322 28.884 112.276 28.986 112.276 29.118C112.276 29.25 112.322 29.354 112.414 29.43C112.51 29.502 112.638 29.538 112.798 29.538ZM116.87 30C116.578 30 116.346 29.93 116.174 29.79C116.002 29.646 115.916 29.392 115.916 29.028V27.564H115.166V27.024H115.61C115.814 27.024 115.934 26.924 115.97 26.724L116.06 26.244H116.552V27.024H117.728V27.564H116.552V29.016C116.552 29.172 116.586 29.282 116.654 29.346C116.726 29.406 116.848 29.436 117.02 29.436H117.716V30H116.87ZM120.18 30.072C119.892 30.072 119.638 30.008 119.418 29.88C119.198 29.748 119.026 29.566 118.902 29.334C118.778 29.102 118.716 28.832 118.716 28.524C118.716 28.212 118.776 27.938 118.896 27.702C119.02 27.466 119.192 27.282 119.412 27.15C119.636 27.018 119.894 26.952 120.186 26.952C120.474 26.952 120.722 27.018 120.93 27.15C121.138 27.278 121.298 27.45 121.41 27.666C121.526 27.882 121.584 28.12 121.584 28.38C121.584 28.42 121.584 28.464 121.584 28.512C121.584 28.556 121.582 28.606 121.578 28.662H119.34C119.36 28.938 119.45 29.148 119.61 29.292C119.77 29.432 119.958 29.502 120.174 29.502C120.362 29.502 120.51 29.464 120.618 29.388C120.73 29.308 120.812 29.2 120.864 29.064H121.506C121.434 29.348 121.284 29.588 121.056 29.784C120.828 29.976 120.536 30.072 120.18 30.072ZM120.18 27.504C119.984 27.504 119.81 27.564 119.658 27.684C119.506 27.8 119.408 27.964 119.364 28.176H120.948C120.932 27.976 120.854 27.814 120.714 27.69C120.574 27.566 120.396 27.504 120.18 27.504ZM123.579 30.072C123.331 30.072 123.109 30.014 122.913 29.898C122.717 29.778 122.561 29.602 122.445 29.37C122.333 29.138 122.277 28.852 122.277 28.512C122.277 28.172 122.335 27.886 122.451 27.654C122.567 27.422 122.723 27.248 122.919 27.132C123.119 27.012 123.341 26.952 123.585 26.952C123.813 26.952 124.001 26.996 124.149 27.084C124.297 27.168 124.407 27.276 124.479 27.408V25.68H125.115V30H124.569L124.515 29.562H124.479C124.399 29.718 124.285 29.842 124.137 29.934C123.993 30.026 123.807 30.072 123.579 30.072ZM123.711 29.466C123.939 29.466 124.127 29.386 124.275 29.226C124.427 29.066 124.503 28.828 124.503 28.512C124.503 28.192 124.427 27.954 124.275 27.798C124.127 27.638 123.939 27.558 123.711 27.558C123.483 27.558 123.293 27.638 123.141 27.798C122.993 27.958 122.919 28.198 122.919 28.518C122.919 28.834 122.993 29.072 123.141 29.232C123.293 29.388 123.483 29.466 123.711 29.466Z" fill="#686A6D"/>
</svg>
