<svg width="28" height="26" viewBox="0 0 28 26" fill="none" xmlns="http://www.w3.org/2000/svg">
<path d="M11.639 23.512C9.00382 23.5121 7.66794 23.512 1.24065 23.238C0.14423 23.1912 -0.441202 20.9638 0.398763 20.2576C7.85911 13.9849 18.1781 0.0348976 19.139 0.0122236C20.3046 -0.0152795 21.639 0.0122236 21.639 0.0122236H21.8784C22.2427 0.0122236 22.4934 0.376135 22.358 0.714369C21.1572 3.71271 16.3994 15.5811 13.7599 21.9794C13.6834 22.1647 13.762 22.441 13.8854 22.599C14.1915 22.9907 13.8652 23.512 13.3681 23.512H11.639Z" fill="#0091FF"/>
<path d="M24.1327 0.635508C24.2832 0.253623 24.6483 0.0122092 25.0587 0.0122092H26.0733C26.7315 0.0122092 27.2101 0.636997 27.0389 1.27246L21.7666 20.8326C21.5815 21.5193 22.1523 22.1743 22.8579 22.0849L27.3786 21.5122C27.6571 21.5123 27.7585 21.8784 27.5185 22.0196C25.6933 23.0941 21.5809 25.5028 21.3786 25.5123C21.1811 25.5217 19.1439 25.5169 18.1708 25.514C17.8486 25.513 17.548 25.3575 17.3672 25.0907C16.8623 24.3455 15.8782 22.8224 15.8784 22.2723C15.8785 21.6077 22.7375 4.17466 24.1327 0.635508Z" fill="#0091FF"/>
</svg>
